<svg width="375" height="435" viewBox="0 0 375 435" fill="none" xmlns="http://www.w3.org/2000/svg">
<path d="M15.7393 411.646H359.551V434.069H15.7393V411.646Z" fill="#1BA0E2"/>
<path d="M180.179 250.487L131.547 279.075L139.122 291.961L191.441 261.206C192.564 260.545 193.495 259.603 194.142 258.473C194.788 257.342 195.128 256.062 195.128 254.759V179.949H180.179V250.487Z" fill="#1BA0E2"/>
<path d="M359.553 112.687H15.7413L0.792969 179.02V396.705H374.501V179.02L359.553 112.687ZM53.1122 172.48C50.1557 172.48 47.2655 171.603 44.8073 169.961C42.3491 168.318 40.4331 165.983 39.3017 163.252C38.1703 160.521 37.8743 157.515 38.451 154.615C39.0278 151.716 40.4515 149.052 42.5421 146.961C44.6326 144.871 47.2962 143.447 50.1959 142.87C53.0956 142.294 56.1012 142.59 58.8326 143.721C61.5641 144.852 63.8987 146.768 65.5412 149.227C67.1838 151.685 68.0605 154.575 68.0605 157.532C68.0605 161.496 66.4856 165.298 63.6822 168.102C60.8789 170.905 57.0767 172.48 53.1122 172.48ZM187.647 374.282C163.995 374.282 140.874 367.269 121.208 354.128C101.542 340.988 86.2147 322.311 77.1635 300.46C68.1123 278.608 65.744 254.563 70.3583 231.366C74.9726 208.168 86.3621 186.86 103.087 170.135C119.811 153.411 141.119 142.021 164.317 137.407C187.515 132.793 211.559 135.161 233.411 144.212C255.263 153.263 273.94 168.591 287.08 188.257C300.22 207.923 307.234 231.044 307.234 254.696C307.198 286.401 294.588 316.798 272.168 339.217C249.749 361.636 219.353 374.247 187.647 374.282Z" fill="#1BA0E2"/>
<path d="M292.282 0.570312H83.0049V97.7345H292.282V0.570312ZM150.272 75.312H120.376V60.3637H150.272V75.312ZM150.272 37.9412H120.376V22.9928H150.272V37.9412ZM254.911 75.312H172.695V60.3637H254.911V75.312ZM254.911 37.9412H172.695V22.9928H254.911V37.9412Z" fill="#1BA0E2"/>
<path d="M83.0049 247.214H97.9532V262.162H83.0049V247.214Z" fill="#1BA0E2"/>
<path d="M277.342 247.214H292.29V262.162H277.342V247.214Z" fill="#1BA0E2"/>
<path d="M93.2939 300.531L106.239 293.057L113.713 306.002L100.768 313.477L93.2939 300.531Z" fill="#1BA0E2"/>
<path d="M261.572 203.375L274.518 195.901L281.992 208.846L269.046 216.32L261.572 203.375Z" fill="#1BA0E2"/>
<path d="M128.854 341.584L136.328 328.639L149.273 336.113L141.799 349.058L128.854 341.584Z" fill="#1BA0E2"/>
<path d="M226.012 173.294L233.486 160.349L246.431 167.823L238.957 180.768L226.012 173.294Z" fill="#1BA0E2"/>
<path d="M180.172 359.329V344.381H195.12V359.329H180.172Z" fill="#1BA0E2"/>
<path d="M180.172 150.057H195.12V165.005H180.172V150.057Z" fill="#1BA0E2"/>
<path d="M226.012 336.092L238.957 328.618L246.431 341.563L233.486 349.037L226.012 336.092Z" fill="#1BA0E2"/>
<path d="M128.854 167.802L141.799 160.328L149.273 173.273L136.328 180.747L128.854 167.802Z" fill="#1BA0E2"/>
<path d="M261.572 306.023L269.046 293.078L281.992 300.552L274.518 313.498L261.572 306.023Z" fill="#1BA0E2"/>
<path d="M93.2939 208.854L100.768 195.909L113.713 203.383L106.239 216.329L93.2939 208.854Z" fill="#1BA0E2"/>
</svg>
