<svg width="24" height="24" viewBox="0 0 24 24" fill="none" xmlns="http://www.w3.org/2000/svg">
<g clip-path="url(#clip0_104_3906)">
<path d="M15.6451 4.13292C15.5533 4.13292 15.46 4.11482 15.3702 4.07667C15.0129 3.92467 14.8464 3.51178 14.9984 3.15449L15.7747 1.32943C15.9267 0.972132 16.3395 0.805693 16.6968 0.957602C17.0542 1.1096 17.2206 1.52249 17.0686 1.87979L16.2923 3.70484C16.1785 3.97234 15.9185 4.13292 15.6451 4.13292Z" fill="#1BA0E2"/>
<path d="M7.57804 23.0988C7.48627 23.0988 7.393 23.0807 7.30319 23.0425C6.94585 22.8905 6.77941 22.4777 6.93141 22.1204L7.70769 20.2952C7.85964 19.938 8.27253 19.7715 8.62982 19.9234C8.98717 20.0754 9.15361 20.4883 9.0016 20.8456L8.22533 22.6707C8.11157 22.9383 7.85149 23.0988 7.57804 23.0988Z" fill="#1BA0E2"/>
<path d="M3.42909 9.05772C3.33732 9.05772 3.24405 9.03963 3.15424 9.00147L1.32918 8.22525C0.971888 8.07324 0.805402 7.6604 0.957405 7.30306C1.10941 6.94576 1.5222 6.77933 1.87954 6.93123L3.7046 7.70751C4.0619 7.85951 4.22838 8.27235 4.07638 8.62969C3.96258 8.89719 3.70254 9.05772 3.42909 9.05772Z" fill="#1BA0E2"/>
<path d="M22.3953 17.1251C22.3035 17.1251 22.2102 17.107 22.1204 17.0689L20.2954 16.2926C19.9381 16.1406 19.7716 15.7278 19.9236 15.3705C20.0755 15.0131 20.4883 14.8467 20.8457 14.9986L22.6708 15.7749C23.0281 15.9269 23.1946 16.3397 23.0426 16.697C22.9288 16.9646 22.6688 17.1251 22.3953 17.1251Z" fill="#1BA0E2"/>
<path d="M8.51765 4.06525C8.23933 4.06525 7.97582 3.89886 7.86535 3.6249L7.12371 1.78545C6.9785 1.4253 7.15272 1.01565 7.51288 0.870488C7.87303 0.725376 8.28264 0.899548 8.42784 1.25966L9.16948 3.09911C9.31469 3.45926 9.14042 3.86891 8.78031 4.01407C8.69416 4.0488 8.60516 4.06525 8.51765 4.06525Z" fill="#1BA0E2"/>
<path d="M16.2246 23.1805C15.9462 23.1805 15.6827 23.0141 15.5722 22.7401L14.8306 20.9007C14.6854 20.5405 14.8597 20.1309 15.2198 19.9857C15.5799 19.8406 15.9895 20.0148 16.1347 20.3749L16.8764 22.2143C17.0216 22.5745 16.8474 22.9841 16.4872 23.1293C16.4011 23.164 16.3121 23.1805 16.2246 23.1805Z" fill="#1BA0E2"/>
<path d="M1.52284 16.9275C1.24447 16.9275 0.981009 16.7611 0.870534 16.4871C0.725328 16.127 0.899547 15.7173 1.25966 15.5721L3.0991 14.8305C3.45917 14.6853 3.86886 14.8595 4.01407 15.2196C4.15928 15.5798 3.98506 15.9894 3.62495 16.1346L1.7855 16.8762C1.6994 16.911 1.61039 16.9275 1.52284 16.9275Z" fill="#1BA0E2"/>
<path d="M20.6382 9.22036C20.3599 9.22036 20.0964 9.05402 19.9859 8.78001C19.8407 8.41985 20.0149 8.01025 20.375 7.86504L22.2145 7.1234C22.5745 6.97834 22.9842 7.15242 23.1294 7.51257C23.2746 7.87273 23.1004 8.28233 22.7403 8.42754L20.9009 9.16918C20.8147 9.20386 20.7257 9.22036 20.6382 9.22036Z" fill="#1BA0E2"/>
<path d="M2.6864 12.703H0.703063C0.314785 12.703 0 12.3882 0 11.9999C0 11.6117 0.314785 11.2969 0.703063 11.2969H2.6864C3.07468 11.2969 3.38947 11.6117 3.38947 11.9999C3.38947 12.3883 3.07468 12.703 2.6864 12.703Z" fill="#1BA0E2"/>
<path d="M23.2969 12.703H21.3135C20.9253 12.703 20.6105 12.3882 20.6105 11.9999C20.6105 11.6117 20.9253 11.2969 21.3135 11.2969H23.2968C23.6851 11.2969 23.9999 11.6117 23.9999 11.9999C23.9999 12.3883 23.6852 12.703 23.2969 12.703Z" fill="#1BA0E2"/>
<path d="M5.41435 6.11713C5.23441 6.11713 5.05447 6.04847 4.91724 5.91118L3.51477 4.50876C3.2402 4.23423 3.2402 3.78906 3.51477 3.51449C3.78929 3.23996 4.23447 3.23996 4.50904 3.51449L5.91146 4.91691C6.18603 5.19143 6.18603 5.63661 5.91146 5.91118C5.77418 6.04847 5.59429 6.11713 5.41435 6.11713Z" fill="#1BA0E2"/>
<path d="M19.9882 20.6913C19.8082 20.6913 19.6283 20.6226 19.491 20.4854L18.0886 19.083C17.814 18.8084 17.814 18.3633 18.0886 18.0887C18.3631 17.8142 18.8083 17.8142 19.0829 18.0887L20.4853 19.4911C20.7599 19.7657 20.7599 20.2108 20.4853 20.4854C20.348 20.6226 20.1681 20.6913 19.9882 20.6913Z" fill="#1BA0E2"/>
<path d="M4.01188 20.6913C3.83194 20.6913 3.652 20.6226 3.51477 20.4854C3.2402 20.2108 3.2402 19.7657 3.51477 19.4911L4.91719 18.0887C5.19171 17.8142 5.63689 17.8142 5.91146 18.0887C6.18603 18.3632 6.18603 18.8084 5.91146 19.083L4.50899 20.4854C4.37175 20.6226 4.19182 20.6913 4.01188 20.6913Z" fill="#1BA0E2"/>
<path d="M18.5857 6.11713C18.4058 6.11713 18.2259 6.04847 18.0886 5.91118C17.814 5.63666 17.814 5.19148 18.0886 4.91691L19.491 3.51449C19.7656 3.23996 20.2107 3.23996 20.4853 3.51449C20.7599 3.78906 20.7599 4.23419 20.4853 4.50876L19.0829 5.91118C18.9456 6.04847 18.7657 6.11713 18.5857 6.11713Z" fill="#1BA0E2"/>
<path d="M12.0001 23.9998C11.6118 23.9998 11.297 23.685 11.297 23.2968V21.3134C11.297 20.9251 11.6118 20.6104 12.0001 20.6104C12.3883 20.6104 12.7031 20.9251 12.7031 21.3134V23.2968C12.7031 23.685 12.3883 23.9998 12.0001 23.9998Z" fill="#1BA0E2"/>
<path d="M12.0001 3.38942C11.6118 3.38942 11.297 3.07464 11.297 2.68636V0.703063C11.297 0.314785 11.6118 0 12.0001 0C12.3883 0 12.7031 0.314785 12.7031 0.703063V2.68636C12.7031 3.07468 12.3883 3.38942 12.0001 3.38942Z" fill="#1BA0E2"/>
<path d="M12.0001 4.90137C8.08582 4.90137 4.90137 8.08582 4.90137 12.0001C4.90137 15.9143 8.08582 19.0987 12.0001 19.0987C15.9143 19.0987 19.0987 15.9143 19.0987 12.0001C19.0987 8.08582 15.9143 4.90137 12.0001 4.90137ZM13.7825 12.7031H12.0001C11.6118 12.7031 11.297 12.3883 11.297 12.0001V10.1497C11.297 9.76146 11.6118 9.44667 12.0001 9.44667C12.3883 9.44667 12.7031 9.76146 12.7031 10.1497V11.297H13.7825C14.1708 11.297 14.4856 11.6118 14.4856 12.0001C14.4856 12.3884 14.1708 12.7031 13.7825 12.7031Z" fill="#1BA0E2"/>
</g>
<defs>
<clipPath id="clip0_104_3906">
<rect width="24" height="24" fill="white"/>
</clipPath>
</defs>
</svg>
