<svg width="27" height="27" viewBox="0 0 27 27" fill="none" xmlns="http://www.w3.org/2000/svg">
<path d="M12.9375 1.125C6.41246 1.125 1.125 6.41252 1.125 12.9375C1.125 19.4625 6.41246 24.75 12.9375 24.75C13.2188 24.75 13.4944 24.7388 13.77 24.7162C12.8583 23.4056 12.3713 21.8465 12.375 20.25C12.3754 18.1616 13.2052 16.1587 14.682 14.682C16.1587 13.2052 18.1616 12.3754 20.25 12.375C21.8465 12.3714 23.4056 12.8583 24.7162 13.77C24.7388 13.4944 24.75 13.2188 24.75 12.9375C24.75 6.41252 19.4626 1.125 12.9375 1.125ZM14.0625 12.9375C14.0625 13.2359 13.944 13.522 13.733 13.733C13.522 13.944 13.2359 14.0625 12.9375 14.0625H7.875C7.57796 14.0605 7.29378 13.9411 7.08446 13.7303C6.87514 13.5196 6.75767 13.2346 6.75767 12.9375C6.75767 12.6405 6.87514 12.3555 7.08446 12.1447C7.29378 11.934 7.57796 11.8146 7.875 11.8125H11.8125V5.62504C11.8115 5.47665 11.8399 5.32953 11.8959 5.19214C11.952 5.05476 12.0347 4.92983 12.1393 4.82454C12.2439 4.71925 12.3682 4.6357 12.5052 4.57867C12.6422 4.52165 12.7891 4.4923 12.9375 4.4923C13.0859 4.4923 13.2328 4.52165 13.3698 4.57867C13.5068 4.6357 13.6312 4.71925 13.7358 4.82454C13.8403 4.92983 13.923 5.05476 13.9791 5.19214C14.0352 5.32953 14.0635 5.47665 14.0625 5.62504V12.9375Z" fill="#1BA0E2"/>
<path d="M20.25 14.625C19.1375 14.625 18.05 14.9549 17.1249 15.573C16.1999 16.1911 15.4789 17.0696 15.0532 18.0974C14.6274 19.1253 14.516 20.2563 14.7331 21.3474C14.9501 22.4386 15.4859 23.4408 16.2725 24.2275C17.0592 25.0142 18.0615 25.5499 19.1526 25.767C20.2438 25.984 21.3748 25.8726 22.4026 25.4469C23.4305 25.0211 24.309 24.3001 24.9271 23.3751C25.5451 22.4501 25.875 21.3625 25.875 20.25C25.875 19.5113 25.7296 18.7799 25.4469 18.0974C25.1642 17.4149 24.7499 16.7948 24.2275 16.2725C23.7052 15.7502 23.0851 15.3358 22.4026 15.0532C21.7202 14.7705 20.9887 14.625 20.25 14.625ZM20.25 24.1875C20.0275 24.1875 19.81 24.1216 19.625 23.998C19.44 23.8743 19.2957 23.6986 19.2106 23.4931C19.1254 23.2875 19.1031 23.0613 19.1465 22.8431C19.1899 22.6248 19.2971 22.4243 19.4544 22.267C19.6118 22.1097 19.8122 22.0025 20.0305 21.9591C20.2487 21.9157 20.4749 21.9379 20.6805 22.0231C20.8861 22.1082 21.0618 22.2524 21.1854 22.4375C21.309 22.6225 21.375 22.84 21.375 23.0625C21.375 23.3609 21.2565 23.647 21.0455 23.858C20.8345 24.069 20.5484 24.1875 20.25 24.1875ZM21.375 20.25C21.375 20.5484 21.2565 20.8345 21.0455 21.0455C20.8345 21.2565 20.5484 21.375 20.25 21.375C19.9517 21.375 19.6655 21.2565 19.4545 21.0455C19.2436 20.8345 19.125 20.5484 19.125 20.25V17.4375C19.125 17.1392 19.2436 16.853 19.4545 16.6421C19.6655 16.4311 19.9517 16.3126 20.25 16.3126C20.5484 16.3126 20.8345 16.4311 21.0455 16.6421C21.2565 16.853 21.375 17.1392 21.375 17.4375V20.25Z" fill="#1BA0E2"/>
</svg>
