<svg width="254" height="244" viewBox="0 0 254 244" fill="none" xmlns="http://www.w3.org/2000/svg">
<path d="M249.264 4.72695L249.011 4.48338C236.096 -7.32577 210.306 13.6475 210.306 13.6475L163.481 49.0942L114.186 40.6937C121.297 30.7815 123.439 20.9414 118.698 16.3826C112.558 10.4781 97.2041 15.6681 84.4063 27.9737C82.1679 30.126 80.1621 32.3535 78.3986 34.5953L40.5486 28.1452L15.3368 48.8009L118.11 94.1455L52.2221 170.696L11.1857 163.299L0.792969 173.277L73.7202 243.398L84.0967 233.405L76.4032 193.947L156.017 130.593L203.175 229.413L224.657 205.171L217.949 168.776C220.281 167.081 222.597 165.153 224.836 163C237.634 150.694 243.031 135.932 236.891 130.028C232.149 125.468 221.915 127.529 211.606 134.366L202.869 86.9678L239.734 41.9432C239.734 41.9438 261.547 17.1444 249.264 4.72695Z" fill="#1BA0E2"/>
</svg>
