<svg width="19" height="21" viewBox="0 0 19 21" fill="none" xmlns="http://www.w3.org/2000/svg">
<path d="M12.6875 15.7778H18L16.5073 14.2948C16.1024 13.8926 15.875 13.3471 15.875 12.7784V9.44445C15.875 6.68688 14.101 4.34093 11.625 3.47149V3.11111C11.625 1.94518 10.6736 1 9.5 1C8.32639 1 7.375 1.94518 7.375 3.11111V3.47149C4.89897 4.34093 3.125 6.68688 3.125 9.44445V12.7784C3.125 13.3471 2.89757 13.8926 2.49274 14.2948L1 15.7778H6.3125M12.6875 15.7778V16.8333C12.6875 18.5822 11.2604 20 9.5 20C7.73959 20 6.3125 18.5822 6.3125 16.8333V15.7778M12.6875 15.7778H6.3125" stroke="#4F4F4F" stroke-width="2" stroke-linecap="round" stroke-linejoin="round"/>
</svg>
