<svg width="18" height="19" viewBox="0 0 18 19" fill="none" xmlns="http://www.w3.org/2000/svg">
<path d="M9.1538 19C6.72606 19 4.39776 17.9991 2.68109 16.2175C0.964415 14.4359 0 12.0196 0 9.5C0 6.98044 0.964415 4.56408 2.68109 2.78249C4.39776 1.00089 6.72606 0 9.1538 0H9.26198C9.44646 2.35308e-05 9.6257 0.0636646 9.77153 0.180921C9.91736 0.298177 10.0215 0.462399 10.0676 0.647778C10.1137 0.833157 10.0992 1.02918 10.0263 1.20504C9.95333 1.3809 9.82617 1.52663 9.66475 1.61932C8.93718 2.03811 8.3045 2.61378 7.80928 3.3076C7.31406 4.00142 6.96779 4.79729 6.79378 5.64163C6.61976 6.48597 6.62204 7.35921 6.80047 8.20256C6.97889 9.04591 7.32931 9.83981 7.82815 10.5308C8.32699 11.2219 8.96267 11.794 9.69242 12.2087C10.4222 12.6233 11.229 12.871 12.0587 12.9349C12.8884 12.9989 13.7217 12.8776 14.5024 12.5793C15.2832 12.2811 15.9933 11.8127 16.585 11.2057C16.7157 11.0726 16.8851 10.9879 17.0669 10.9649C17.2487 10.9418 17.4327 10.9816 17.5905 11.0782C17.7482 11.1747 17.8709 11.3225 17.9395 11.4987C18.008 11.675 18.0187 11.8698 17.9697 12.0529C17.4303 14.0496 16.2771 15.8087 14.6858 17.0628C13.0944 18.3168 11.1519 18.997 9.1538 19Z" fill="#1BA0E2"/>
</svg>
