<svg width="269" height="255" viewBox="0 0 269 255" fill="none" xmlns="http://www.w3.org/2000/svg">
<path d="M179 254.75H89.9246C86.9716 254.75 84.1395 253.633 82.0514 251.644C79.9633 249.655 78.7902 246.958 78.7902 244.146V180.521H11.984C9.03096 180.521 6.19888 179.404 4.11078 177.415C2.02268 175.426 0.849609 172.729 0.849609 169.917V85.0833C0.849609 82.2709 2.02268 79.5737 4.11078 77.5851C6.19888 75.5964 9.03096 74.4792 11.984 74.4792H78.7902V10.8542C78.7902 8.04177 79.9633 5.34456 82.0514 3.35589C84.1395 1.36722 86.9716 0.25 89.9246 0.25H179C181.953 0.25 184.785 1.36722 186.873 3.35589C188.961 5.34456 190.134 8.04177 190.134 10.8542V74.4792H256.94C259.893 74.4792 262.725 75.5964 264.813 77.5851C266.902 79.5737 268.075 82.2709 268.075 85.0833V169.917C268.075 172.729 266.902 175.426 264.813 177.415C262.725 179.404 259.893 180.521 256.94 180.521H190.134V244.146C190.134 246.958 188.961 249.655 186.873 251.644C184.785 253.633 181.953 254.75 179 254.75Z" fill="#1BA0E2"/>
</svg>
