<svg width="281" height="268" viewBox="0 0 281 268" fill="none" xmlns="http://www.w3.org/2000/svg">
<path d="M274.851 96.4678L147.592 2.93642C145.454 1.36706 142.909 0.525391 140.3 0.525391C137.692 0.525391 135.146 1.36706 133.008 2.93642L5.74906 96.4678C3.53344 98.0976 1.87014 100.426 1.00056 103.116C0.130977 105.806 0.100367 108.716 0.913177 111.425C1.72599 114.135 3.33992 116.501 5.52073 118.182C7.70154 119.863 10.3357 120.77 13.041 120.773H38.4929V241.027H25.7669C22.3918 241.027 19.1549 242.435 16.7683 244.941C14.3818 247.446 13.041 250.845 13.041 254.389C13.041 257.932 14.3818 261.331 16.7683 263.837C19.1549 266.343 22.3918 267.75 25.7669 267.75H254.833C258.209 267.75 261.445 266.343 263.832 263.837C266.219 261.331 267.559 257.932 267.559 254.389C267.559 250.845 266.219 247.446 263.832 244.941C261.445 242.435 258.209 241.027 254.833 241.027H242.108V120.773H267.559C270.265 120.77 272.899 119.863 275.08 118.182C277.26 116.501 278.874 114.135 279.687 111.425C280.5 108.716 280.469 105.806 279.6 103.116C278.73 100.426 277.067 98.0976 274.851 96.4678ZM114.848 241.027V214.304C114.848 207.216 117.53 200.419 122.303 195.408C127.076 190.396 133.55 187.581 140.3 187.581C147.05 187.581 153.524 190.396 158.297 195.408C163.071 200.419 165.752 207.216 165.752 214.304V241.027H114.848Z" fill="#1BA0E2"/>
</svg>
