<svg width="232" height="249" viewBox="0 0 232 249" fill="none" xmlns="http://www.w3.org/2000/svg">
<path d="M90.4095 223.841V174.214H141.875V223.841H90.4095ZM219.073 223.841H206.207V12.9245C206.207 9.63394 204.851 6.4782 202.439 4.15146C200.026 1.82472 196.753 0.517578 193.341 0.517578H38.9439C35.5315 0.517578 32.2589 1.82472 29.846 4.15146C27.4331 6.4782 26.0775 9.63394 26.0775 12.9245V223.841H13.2111C9.79874 223.841 6.52611 225.148 4.1132 227.475C1.70028 229.802 0.344727 232.958 0.344727 236.248C0.344727 239.539 1.70028 242.694 4.1132 245.021C6.52611 247.348 9.79874 248.655 13.2111 248.655H219.073C222.486 248.655 225.758 247.348 228.171 245.021C230.584 242.694 231.94 239.539 231.94 236.248C231.94 232.958 230.584 229.802 228.171 227.475C225.758 225.148 222.486 223.841 219.073 223.841ZM77.5431 136.993C74.9983 136.993 72.5107 136.266 70.3949 134.902C68.279 133.539 66.6299 131.601 65.6561 129.334C64.6822 127.067 64.4274 124.573 64.9239 122.166C65.4204 119.759 66.6458 117.548 68.4451 115.813C70.2445 114.078 72.5371 112.897 75.033 112.418C77.5288 111.939 80.1158 112.185 82.4668 113.124C84.8178 114.063 86.8273 115.653 88.2411 117.693C89.6549 119.734 90.4095 122.132 90.4095 124.586C90.4095 127.877 89.0539 131.033 86.641 133.359C84.2281 135.686 80.9554 136.993 77.5431 136.993ZM77.5431 99.7726C74.9983 99.7726 72.5107 99.0449 70.3949 97.6816C68.279 96.3184 66.6299 94.3807 65.6561 92.1136C64.6822 89.8465 64.4274 87.3519 64.9239 84.9452C65.4204 82.5385 66.6458 80.3278 68.4451 78.5927C70.2445 76.8576 72.5371 75.6759 75.033 75.1972C77.5288 74.7185 80.1158 74.9642 82.4668 75.9032C84.8178 76.8423 86.8273 78.4325 88.2411 80.4728C89.6549 82.5131 90.4095 84.9118 90.4095 87.3657C90.4095 90.6562 89.0539 93.812 86.641 96.1387C84.2281 98.4654 80.9554 99.7726 77.5431 99.7726ZM77.5431 62.552C74.9983 62.552 72.5107 61.8243 70.3949 60.461C68.279 59.0977 66.6299 57.16 65.6561 54.893C64.6822 52.6259 64.4274 50.1313 64.9239 47.7246C65.4204 45.3179 66.6458 43.1072 68.4451 41.3721C70.2445 39.6369 72.5371 38.4553 75.033 37.9766C77.5288 37.4979 80.1158 37.7436 82.4668 38.6826C84.8178 39.6217 86.8273 41.2119 88.2411 43.2522C89.6549 45.2925 90.4095 47.6912 90.4095 50.1451C90.4095 53.4356 89.0539 56.5913 86.641 58.9181C84.2281 61.2448 80.9554 62.552 77.5431 62.552ZM116.142 136.993C113.598 136.993 111.11 136.266 108.994 134.902C106.878 133.539 105.229 131.601 104.255 129.334C103.281 127.067 103.027 124.573 103.523 122.166C104.02 119.759 105.245 117.548 107.044 115.813C108.844 114.078 111.136 112.897 113.632 112.418C116.128 111.939 118.715 112.185 121.066 113.124C123.417 114.063 125.426 115.653 126.84 117.693C128.254 119.734 129.009 122.132 129.009 124.586C129.009 127.877 127.653 131.033 125.24 133.359C122.827 135.686 119.555 136.993 116.142 136.993ZM116.142 99.7726C113.598 99.7726 111.11 99.0449 108.994 97.6816C106.878 96.3184 105.229 94.3807 104.255 92.1136C103.281 89.8465 103.027 87.3519 103.523 84.9452C104.02 82.5385 105.245 80.3278 107.044 78.5927C108.844 76.8576 111.136 75.6759 113.632 75.1972C116.128 74.7185 118.715 74.9642 121.066 75.9032C123.417 76.8423 125.426 78.4325 126.84 80.4728C128.254 82.5131 129.009 84.9118 129.009 87.3657C129.009 90.6562 127.653 93.812 125.24 96.1387C122.827 98.4654 119.555 99.7726 116.142 99.7726ZM116.142 62.552C113.598 62.552 111.11 61.8243 108.994 60.461C106.878 59.0977 105.229 57.16 104.255 54.893C103.281 52.6259 103.027 50.1313 103.523 47.7246C104.02 45.3179 105.245 43.1072 107.044 41.3721C108.844 39.6369 111.136 38.4553 113.632 37.9766C116.128 37.4979 118.715 37.7436 121.066 38.6826C123.417 39.6217 125.426 41.2119 126.84 43.2522C128.254 45.2925 129.009 47.6912 129.009 50.1451C129.009 53.4356 127.653 56.5913 125.24 58.9181C122.827 61.2448 119.555 62.552 116.142 62.552ZM154.741 136.993C152.197 136.993 149.709 136.266 147.593 134.902C145.477 133.539 143.828 131.601 142.854 129.334C141.881 127.067 141.626 124.573 142.122 122.166C142.619 119.759 143.844 117.548 145.643 115.813C147.443 114.078 149.735 112.897 152.231 112.418C154.727 111.939 157.314 112.185 159.665 113.124C162.016 114.063 164.026 115.653 165.439 117.693C166.853 119.734 167.608 122.132 167.608 124.586C167.608 127.877 166.252 131.033 163.839 133.359C161.426 135.686 158.154 136.993 154.741 136.993ZM154.741 99.7726C152.197 99.7726 149.709 99.0449 147.593 97.6816C145.477 96.3184 143.828 94.3807 142.854 92.1136C141.881 89.8465 141.626 87.3519 142.122 84.9452C142.619 82.5385 143.844 80.3278 145.643 78.5927C147.443 76.8576 149.735 75.6759 152.231 75.1972C154.727 74.7185 157.314 74.9642 159.665 75.9032C162.016 76.8423 164.026 78.4325 165.439 80.4728C166.853 82.5131 167.608 84.9118 167.608 87.3657C167.608 90.6562 166.252 93.812 163.839 96.1387C161.426 98.4654 158.154 99.7726 154.741 99.7726ZM154.741 62.552C152.197 62.552 149.709 61.8243 147.593 60.461C145.477 59.0977 143.828 57.16 142.854 54.893C141.881 52.6259 141.626 50.1313 142.122 47.7246C142.619 45.3179 143.844 43.1072 145.643 41.3721C147.443 39.6369 149.735 38.4553 152.231 37.9766C154.727 37.4979 157.314 37.7436 159.665 38.6826C162.016 39.6217 164.026 41.2119 165.439 43.2522C166.853 45.2925 167.608 47.6912 167.608 50.1451C167.608 53.4356 166.252 56.5913 163.839 58.9181C161.426 61.2448 158.154 62.552 154.741 62.552Z" fill="#1BA0E2"/>
</svg>
