<svg width="27" height="29" viewBox="0 0 27 29" fill="none" xmlns="http://www.w3.org/2000/svg">
<path d="M10.5 26.1V20.3H16.5V26.1H10.5ZM25.5 26.1H24V1.45C24 1.06544 23.842 0.696622 23.5607 0.424694C23.2794 0.152766 22.8978 0 22.5 0H4.5C4.10218 0 3.72064 0.152766 3.43934 0.424694C3.15803 0.696622 3 1.06544 3 1.45V26.1H1.5C1.10218 26.1 0.720643 26.2528 0.439339 26.5247C0.158034 26.7966 0 27.1654 0 27.55C0 27.9346 0.158034 28.3034 0.439339 28.5753C0.720643 28.8472 1.10218 29 1.5 29H25.5C25.8978 29 26.2794 28.8472 26.5607 28.5753C26.842 28.3034 27 27.9346 27 27.55C27 27.1654 26.842 26.7966 26.5607 26.5247C26.2794 26.2528 25.8978 26.1 25.5 26.1ZM9 15.95C8.70333 15.95 8.41332 15.865 8.16664 15.7056C7.91997 15.5463 7.72771 15.3198 7.61418 15.0549C7.50065 14.7899 7.47094 14.4984 7.52882 14.2171C7.5867 13.9358 7.72956 13.6775 7.93934 13.4747C8.14912 13.2719 8.41639 13.1338 8.70736 13.0779C8.99833 13.0219 9.29994 13.0506 9.57402 13.1604C9.84811 13.2701 10.0824 13.456 10.2472 13.6944C10.412 13.9329 10.5 14.2132 10.5 14.5C10.5 14.8846 10.342 15.2534 10.0607 15.5253C9.77936 15.7972 9.39782 15.95 9 15.95ZM9 11.6C8.70333 11.6 8.41332 11.515 8.16664 11.3556C7.91997 11.1963 7.72771 10.9698 7.61418 10.7049C7.50065 10.4399 7.47094 10.1484 7.52882 9.86712C7.5867 9.58585 7.72956 9.32748 7.93934 9.12469C8.14912 8.92191 8.41639 8.78381 8.70736 8.72786C8.99833 8.67191 9.29994 8.70063 9.57402 8.81038C9.84811 8.92012 10.0824 9.10597 10.2472 9.34442C10.412 9.58287 10.5 9.86322 10.5 10.15C10.5 10.5346 10.342 10.9034 10.0607 11.1753C9.77936 11.4472 9.39782 11.6 9 11.6ZM9 7.25C8.70333 7.25 8.41332 7.16496 8.16664 7.00563C7.91997 6.8463 7.72771 6.61984 7.61418 6.35489C7.50065 6.08994 7.47094 5.79839 7.52882 5.51712C7.5867 5.23585 7.72956 4.97748 7.93934 4.77469C8.14912 4.57191 8.41639 4.43381 8.70736 4.37786C8.99833 4.32191 9.29994 4.35063 9.57402 4.46037C9.84811 4.57012 10.0824 4.75597 10.2472 4.99442C10.412 5.23287 10.5 5.51322 10.5 5.8C10.5 6.18456 10.342 6.55338 10.0607 6.82531C9.77936 7.09723 9.39782 7.25 9 7.25ZM13.5 15.95C13.2033 15.95 12.9133 15.865 12.6666 15.7056C12.42 15.5463 12.2277 15.3198 12.1142 15.0549C12.0006 14.7899 11.9709 14.4984 12.0288 14.2171C12.0867 13.9358 12.2296 13.6775 12.4393 13.4747C12.6491 13.2719 12.9164 13.1338 13.2074 13.0779C13.4983 13.0219 13.7999 13.0506 14.074 13.1604C14.3481 13.2701 14.5824 13.456 14.7472 13.6944C14.912 13.9329 15 14.2132 15 14.5C15 14.8846 14.842 15.2534 14.5607 15.5253C14.2794 15.7972 13.8978 15.95 13.5 15.95ZM13.5 11.6C13.2033 11.6 12.9133 11.515 12.6666 11.3556C12.42 11.1963 12.2277 10.9698 12.1142 10.7049C12.0006 10.4399 11.9709 10.1484 12.0288 9.86712C12.0867 9.58585 12.2296 9.32748 12.4393 9.12469C12.6491 8.92191 12.9164 8.78381 13.2074 8.72786C13.4983 8.67191 13.7999 8.70063 14.074 8.81038C14.3481 8.92012 14.5824 9.10597 14.7472 9.34442C14.912 9.58287 15 9.86322 15 10.15C15 10.5346 14.842 10.9034 14.5607 11.1753C14.2794 11.4472 13.8978 11.6 13.5 11.6ZM13.5 7.25C13.2033 7.25 12.9133 7.16496 12.6666 7.00563C12.42 6.8463 12.2277 6.61984 12.1142 6.35489C12.0006 6.08994 11.9709 5.79839 12.0288 5.51712C12.0867 5.23585 12.2296 4.97748 12.4393 4.77469C12.6491 4.57191 12.9164 4.43381 13.2074 4.37786C13.4983 4.32191 13.7999 4.35063 14.074 4.46037C14.3481 4.57012 14.5824 4.75597 14.7472 4.99442C14.912 5.23287 15 5.51322 15 5.8C15 6.18456 14.842 6.55338 14.5607 6.82531C14.2794 7.09723 13.8978 7.25 13.5 7.25ZM18 15.95C17.7033 15.95 17.4133 15.865 17.1666 15.7056C16.92 15.5463 16.7277 15.3198 16.6142 15.0549C16.5007 14.7899 16.4709 14.4984 16.5288 14.2171C16.5867 13.9358 16.7296 13.6775 16.9393 13.4747C17.1491 13.2719 17.4164 13.1338 17.7074 13.0779C17.9983 13.0219 18.2999 13.0506 18.574 13.1604C18.8481 13.2701 19.0824 13.456 19.2472 13.6944C19.412 13.9329 19.5 14.2132 19.5 14.5C19.5 14.8846 19.342 15.2534 19.0607 15.5253C18.7794 15.7972 18.3978 15.95 18 15.95ZM18 11.6C17.7033 11.6 17.4133 11.515 17.1666 11.3556C16.92 11.1963 16.7277 10.9698 16.6142 10.7049C16.5007 10.4399 16.4709 10.1484 16.5288 9.86712C16.5867 9.58585 16.7296 9.32748 16.9393 9.12469C17.1491 8.92191 17.4164 8.78381 17.7074 8.72786C17.9983 8.67191 18.2999 8.70063 18.574 8.81038C18.8481 8.92012 19.0824 9.10597 19.2472 9.34442C19.412 9.58287 19.5 9.86322 19.5 10.15C19.5 10.5346 19.342 10.9034 19.0607 11.1753C18.7794 11.4472 18.3978 11.6 18 11.6ZM18 7.25C17.7033 7.25 17.4133 7.16496 17.1666 7.00563C16.92 6.8463 16.7277 6.61984 16.6142 6.35489C16.5007 6.08994 16.4709 5.79839 16.5288 5.51712C16.5867 5.23585 16.7296 4.97748 16.9393 4.77469C17.1491 4.57191 17.4164 4.43381 17.7074 4.37786C17.9983 4.32191 18.2999 4.35063 18.574 4.46037C18.8481 4.57012 19.0824 4.75597 19.2472 4.99442C19.412 5.23287 19.5 5.51322 19.5 5.8C19.5 6.18456 19.342 6.55338 19.0607 6.82531C18.7794 7.09723 18.3978 7.25 18 7.25Z" fill="white"/>
</svg>
