<svg width="27" height="27" viewBox="0 0 27 27" fill="none" xmlns="http://www.w3.org/2000/svg">
<path d="M3.85714 0C1.7269 0 0 1.7269 0 3.85714V7.71429C0 9.84453 1.7269 11.5714 3.85714 11.5714H7.71429C9.84453 11.5714 11.5714 9.84453 11.5714 7.71429V3.85714C11.5714 1.7269 9.84453 0 7.71429 0H3.85714Z" fill="white"/>
<path d="M3.85714 15.4286C1.7269 15.4286 0 17.1555 0 19.2857V23.1429C0 25.2731 1.7269 27 3.85714 27H7.71429C9.84453 27 11.5714 25.2731 11.5714 23.1429V19.2857C11.5714 17.1555 9.84453 15.4286 7.71429 15.4286H3.85714Z" fill="white"/>
<path d="M15.4286 3.85714C15.4286 1.7269 17.1555 0 19.2857 0H23.1429C25.2731 0 27 1.7269 27 3.85714V7.71429C27 9.84453 25.2731 11.5714 23.1429 11.5714H19.2857C17.1555 11.5714 15.4286 9.84453 15.4286 7.71429V3.85714Z" fill="white"/>
<path d="M21.2143 15.4286C22.2794 15.4286 23.1429 16.292 23.1429 17.3571V19.2857H25.0714C26.1365 19.2857 27 20.1492 27 21.2143C27 22.2794 26.1365 23.1429 25.0714 23.1429H23.1429V25.0714C23.1429 26.1365 22.2794 27 21.2143 27C20.1492 27 19.2857 26.1365 19.2857 25.0714V23.1429H17.3571C16.292 23.1429 15.4286 22.2794 15.4286 21.2143C15.4286 20.1492 16.292 19.2857 17.3571 19.2857H19.2857V17.3571C19.2857 16.292 20.1492 15.4286 21.2143 15.4286Z" fill="white"/>
</svg>
