<svg width="50" height="50" viewBox="0 0 50 50" fill="none" xmlns="http://www.w3.org/2000/svg">
<path d="M50 36.3587V13.6408C50 6.10706 43.8927 -0.000244141 36.359 -0.000244141L13.6411 -0.000244141C6.10734 -0.000244141 3.43323e-05 6.10706 3.43323e-05 13.6408V36.3587C3.43323e-05 43.8924 6.10734 49.9998 13.6411 49.9998H36.359C43.8927 49.9998 50 43.8924 50 36.3587Z" fill="#1BA0E2"/>
<path d="M44.5277 10.8469C44.2763 10.7915 44.0151 10.7999 43.7678 10.8714C43.5205 10.9429 43.295 11.0752 43.1119 11.2562C43.0494 11.3026 42.9902 11.3533 42.9346 11.4078C42.8714 11.4533 42.8121 11.504 42.7572 11.5594C42.6942 11.6058 42.6345 11.6564 42.5784 11.711C42.5158 11.7573 42.4565 11.8079 42.401 11.8625C42.3388 11.9093 42.2796 11.96 42.2237 12.0141C42.1611 12.0604 42.1018 12.1111 42.0463 12.1657C41.9838 12.2121 41.9245 12.2628 41.869 12.3173C41.8058 12.3629 41.7465 12.4136 41.6916 12.4689C41.6282 12.5148 41.5684 12.5655 41.5127 12.6205C41.4501 12.6668 41.3909 12.7174 41.3354 12.7721C41.2728 12.8184 41.2135 12.869 41.158 12.9236C41.0954 12.97 41.0362 13.0206 40.9807 13.0752C40.9181 13.1215 40.8588 13.1722 40.8033 13.2268C40.7408 13.2732 40.6815 13.3239 40.626 13.3784C40.5626 13.4243 40.5028 13.475 40.4471 13.53C40.3849 13.5768 40.3257 13.6274 40.2697 13.6816C40.2071 13.7279 40.1479 13.7785 40.0924 13.8331C40.0302 13.8799 39.971 13.9306 39.915 13.9847C39.8524 14.031 39.7932 14.0817 39.7377 14.1363C39.675 14.1831 39.6152 14.2337 39.5588 14.2879C39.4962 14.3342 39.4369 14.3848 39.3815 14.4395C39.2637 14.5411 39.1455 14.6422 39.0268 14.7426C38.909 14.8443 38.7908 14.9453 38.6721 15.0458C38.6093 15.0926 38.5496 15.1432 38.4932 15.1974C38.4313 15.2446 38.3721 15.2952 38.3158 15.349C38.2536 15.3958 38.1944 15.4464 38.1385 15.5006C38.0766 15.5478 38.0174 15.5984 37.9611 15.6521C37.8989 15.6989 37.8397 15.7496 37.7838 15.8037C37.7219 15.8509 37.6627 15.9016 37.6064 15.9553C37.5437 16.0021 37.484 16.0527 37.4275 16.1069C37.3669 16.1539 37.3063 16.2039 37.2502 16.2585C37.188 16.3053 37.1287 16.3559 37.0728 16.4101C37.011 16.4573 36.9518 16.5079 36.8955 16.5617C36.8333 16.6084 36.774 16.6591 36.7181 16.7132C36.656 16.7602 36.5969 16.8102 36.5393 16.8648C36.4774 16.912 36.4182 16.9626 36.3619 17.0164C36.3013 17.0634 36.2406 17.1134 36.1846 17.168C36.1223 17.2148 36.0631 17.2654 36.0072 17.3196C35.8885 17.42 35.7702 17.5211 35.6525 17.6227C35.5903 17.6697 35.5312 17.7198 35.4736 17.7743C35.416 17.8289 35.3524 17.8729 35.2963 17.9259C35.2402 17.979 35.175 18.0229 35.1189 18.0775C35.0628 18.1321 34.9977 18.176 34.9416 18.2291C34.8794 18.2759 34.8201 18.3265 34.7642 18.3807L34.7624 18.3809C34.5871 18.5307 34.5871 18.5307 34.4119 18.6805C34.3474 18.7323 34.2882 18.7824 34.2322 18.8354C34.1703 18.8826 34.1111 18.9332 34.0548 18.987C33.9926 19.0338 33.9334 19.0844 33.8774 19.1386L33.8799 19.1337C33.7013 19.2863 33.7013 19.2863 33.5228 19.4389L33.5227 19.4417C33.4609 19.489 33.4017 19.5396 33.3454 19.5933C33.2832 19.6403 33.2241 19.6903 33.1665 19.7449C33.1089 19.7995 33.0468 19.8419 32.9892 19.8965C32.9316 19.9511 32.8694 19.9935 32.8118 20.0481C32.7542 20.1027 32.6921 20.1451 32.6345 20.1997C32.5769 20.2542 32.5147 20.2982 32.4571 20.3513C32.3995 20.4043 32.3374 20.4483 32.2798 20.5028C32.2222 20.5574 32.16 20.5998 32.1024 20.6544C32.0448 20.709 31.9826 20.7529 31.925 20.806C31.8674 20.8591 31.8053 20.903 31.7477 20.9576C31.6901 21.0122 31.6279 21.0561 31.5703 21.1092C31.5127 21.1622 31.4506 21.2062 31.393 21.2608C31.3354 21.3153 31.2732 21.3578 31.2156 21.4123C31.158 21.4669 31.0959 21.5109 31.0383 21.5639C30.9807 21.617 30.9185 21.6609 30.8609 21.7155C30.8033 21.7701 30.7412 21.814 30.6836 21.8671C30.626 21.9201 30.5638 21.9641 30.5062 22.0187C30.4486 22.0732 30.3865 22.1157 30.3289 22.1703C30.2713 22.2248 30.2091 22.2688 30.1515 22.3218C30.0939 22.3749 30.0318 22.4189 29.9742 22.4734C29.9166 22.528 29.8544 22.572 29.7968 22.625C29.7392 22.6781 29.6771 22.7235 29.6195 22.7766C29.5618 22.8296 29.4997 22.8736 29.4421 22.9282C29.3845 22.9827 29.3223 23.0267 29.2647 23.0798C29.2071 23.1328 29.145 23.1768 29.0874 23.2313C29.0298 23.2859 28.9676 23.3299 28.91 23.3829C28.8524 23.436 28.7903 23.4815 28.7327 23.5345C28.6751 23.5876 28.6129 23.6315 28.5553 23.6861C28.4977 23.7407 28.4356 23.7846 28.378 23.8377C28.3204 23.8907 28.2582 23.9347 28.2006 23.9893C28.143 24.0438 28.0809 24.0878 28.0233 24.1409C27.9657 24.1939 27.9035 24.2394 27.8459 24.2924C27.7883 24.3455 27.7262 24.3894 27.6686 24.444C27.611 24.4986 27.5488 24.5425 27.4912 24.5956C27.4336 24.6487 27.3715 24.6926 27.3139 24.7472C27.2563 24.8018 27.1941 24.8457 27.1365 24.8988C27.0789 24.9518 27.0168 24.9973 26.9592 25.0504C26.9016 25.1034 26.8394 25.1474 26.7818 25.2019C26.7242 25.2565 26.662 25.3005 26.6044 25.3535C26.5468 25.4066 26.4847 25.4521 26.4271 25.5051C26.3695 25.5582 26.3073 25.6036 26.2497 25.6567C26.1921 25.7097 26.13 25.7552 26.0724 25.8083C26.0148 25.8613 25.9526 25.9053 25.895 25.9599C25.8374 26.0144 25.7753 26.0584 25.7177 26.1114C25.6601 26.1645 25.5979 26.21 25.5403 26.263C25.4827 26.3161 25.4206 26.3616 25.363 26.4146C25.3054 26.4677 25.2432 26.5131 25.1856 26.5662C25.128 26.6193 25.0659 26.6632 25.0083 26.7178C24.9507 26.7724 24.8885 26.8163 24.8309 26.8694C24.7733 26.9224 24.7112 26.9679 24.6536 27.0209C24.596 27.074 24.5338 27.1195 24.4762 27.1725L24.4156 27.2226C24.3792 27.1907 24.3413 27.1604 24.3034 27.1301C24.2655 27.0998 24.1912 27.0346 24.1336 26.9891C24.076 26.9436 24.0215 26.8921 23.9639 26.8466C23.9097 26.7968 23.853 26.7497 23.7941 26.7057C23.7395 26.6556 23.6834 26.6086 23.6243 26.5632C23.5652 26.5177 23.5136 26.4662 23.456 26.4207C23.3984 26.3752 23.3439 26.3252 23.2863 26.2797C23.2287 26.2342 23.1756 26.1827 23.1165 26.1372C23.0624 26.0873 23.0057 26.0403 22.9467 25.9962C22.8922 25.9462 22.8361 25.8992 22.7785 25.8538C22.7209 25.8083 22.6663 25.7567 22.6087 25.7128C22.5511 25.6688 22.4965 25.6158 22.4389 25.5703C22.3813 25.5248 22.3283 25.4733 22.2691 25.4278C22.21 25.3823 22.1585 25.3308 22.0994 25.2868C22.0402 25.2429 21.9887 25.1898 21.9311 25.1443C21.8735 25.0989 21.8189 25.0473 21.7613 25.0034C21.7037 24.9594 21.6507 24.9064 21.5916 24.8609C21.5324 24.8154 21.4809 24.7639 21.4218 24.7184C21.3627 24.6729 21.3111 24.6214 21.252 24.5774C21.1929 24.5335 21.1414 24.4804 21.0838 24.4349C21.0296 24.3851 20.973 24.338 20.914 24.294C20.8594 24.2439 20.8033 24.1969 20.7442 24.1515C20.6306 24.0581 20.5179 23.9636 20.4062 23.868C20.3516 23.818 20.2955 23.771 20.2364 23.7255C20.1823 23.6756 20.1256 23.6286 20.0666 23.5845C20.0121 23.5345 19.956 23.4875 19.8969 23.442C19.7813 23.3195 19.6671 23.1957 19.5543 23.0707C19.5001 23.0208 19.4435 22.9737 19.3845 22.9297C19.3304 22.8793 19.2737 22.8318 19.2147 22.7872C19.1602 22.7372 19.1041 22.6902 19.045 22.6447C18.9911 22.5945 18.9344 22.5474 18.8752 22.5037C18.8219 22.453 18.7657 22.4055 18.7069 22.3613C18.6528 22.3114 18.5961 22.2643 18.5371 22.2203C18.483 22.1699 18.4264 22.1224 18.3674 22.0778C18.3141 22.0276 18.2579 21.9805 18.1991 21.9368C18.145 21.8865 18.0883 21.8389 18.0293 21.7943C17.976 21.7441 17.9199 21.697 17.8611 21.6534C17.8069 21.6035 17.7503 21.5564 17.6913 21.5124C17.638 21.4617 17.5818 21.4141 17.523 21.3699C17.4689 21.32 17.4122 21.273 17.3533 21.2289C17.2998 21.1783 17.2431 21.1312 17.1835 21.0879C17.1302 21.0372 17.074 20.9897 17.0152 20.9455C16.9614 20.8952 16.9047 20.8482 16.8455 20.8045C16.7922 20.7543 16.736 20.7072 16.6772 20.6635C16.6238 20.6124 16.5671 20.5648 16.5074 20.521C16.4541 20.4708 16.398 20.4237 16.3392 20.3801C16.2854 20.3298 16.2287 20.2827 16.1694 20.2391C16.1165 20.1879 16.0603 20.1403 16.0011 20.0966C15.9473 20.0464 15.8906 19.9993 15.8314 19.9556C15.7785 19.905 15.7223 19.8579 15.6631 19.8146C15.6097 19.7635 15.553 19.7159 15.4933 19.6722C15.44 19.6219 15.3839 19.5749 15.3251 19.5312C15.2717 19.4805 15.2149 19.4334 15.1553 19.3902C15.1038 19.3402 15.0491 19.2937 14.9916 19.2508C14.9378 19.2005 14.8811 19.1534 14.8218 19.1098C14.7693 19.0587 14.7131 19.0116 14.6536 18.9688C14.6001 18.9176 14.5434 18.87 14.4838 18.8263C14.4307 18.7753 14.374 18.7281 14.314 18.6853C14.0294 18.405 13.6462 18.2477 13.2467 18.2473C12.8473 18.2468 12.4636 18.4033 12.1784 18.6829C11.8932 18.9626 11.7292 19.343 11.7218 19.7424C11.7144 20.1418 11.8641 20.5281 12.1388 20.8181C12.1804 20.8791 12.2265 20.9368 12.2767 20.9909C12.3189 21.0515 12.3649 21.1092 12.4147 21.1637C12.4577 21.2235 12.5043 21.2807 12.5541 21.335C12.5958 21.396 12.6419 21.4537 12.6921 21.5078C12.7338 21.5682 12.7799 21.6254 12.83 21.6791C12.8726 21.7393 12.9187 21.797 12.9679 21.8519C13.0102 21.9123 13.0568 21.9696 13.1074 22.0232C13.1495 22.0838 13.1956 22.1415 13.2453 22.196C13.2875 22.2566 13.3336 22.3143 13.3833 22.3688C13.4263 22.4286 13.4729 22.4858 13.5227 22.5401C13.5649 22.6007 13.611 22.6584 13.6607 22.7129C13.7008 22.7747 13.7454 22.8335 13.7941 22.8888C13.8859 23.0045 13.9784 23.1197 14.0715 23.2344C14.114 23.2942 14.1601 23.3514 14.2094 23.4057C14.252 23.4659 14.2981 23.5236 14.3474 23.5785C14.3913 23.6376 14.4368 23.6952 14.4853 23.7498C14.5284 23.81 14.575 23.8677 14.6248 23.9226C14.6673 23.9824 14.7134 24.0396 14.7627 24.0939C14.8052 24.1537 14.8513 24.2109 14.9006 24.2652C14.9424 24.3255 14.9885 24.3828 15.0386 24.4364C15.0807 24.497 15.1268 24.5547 15.1765 24.6092C15.2195 24.6687 15.2656 24.7259 15.3145 24.7805C15.3575 24.84 15.4035 24.8971 15.4524 24.9518C15.495 25.012 15.5411 25.0697 15.5904 25.1246C15.6343 25.1838 15.6798 25.2414 15.7283 25.2959C15.7768 25.3505 15.8177 25.4126 15.8662 25.4672C15.9147 25.5218 15.9557 25.5839 16.0042 25.64C16.0527 25.6961 16.0936 25.7567 16.1421 25.8113C16.1906 25.8659 16.2316 25.928 16.2801 25.9826C16.3236 26.0425 16.3701 26.1002 16.4195 26.1554C16.462 26.2152 16.5081 26.2724 16.5575 26.3267C16.6005 26.3861 16.6465 26.4433 16.6954 26.498C16.7384 26.5574 16.7844 26.6146 16.8333 26.6693C16.8783 26.7255 16.9264 26.7791 16.9773 26.83C17.0203 26.8894 17.0664 26.9466 17.1153 27.0012C17.1592 27.0604 17.2047 27.118 17.2532 27.1725C17.3017 27.2271 17.3427 27.2893 17.3912 27.3453C17.4397 27.4014 17.4806 27.4621 17.5291 27.5166C17.5776 27.5712 17.6185 27.6333 17.6671 27.6879C17.7156 27.7425 17.7565 27.8046 17.805 27.8607C17.8535 27.9168 17.8944 27.9774 17.9429 28.032C17.9914 28.0866 18.0339 28.1487 18.0824 28.2033C18.1309 28.2579 18.1718 28.32 18.2203 28.3761C18.2688 28.4322 18.3098 28.4913 18.3583 28.5474C18.4013 28.6068 18.4473 28.664 18.4962 28.7187C18.5392 28.7781 18.5853 28.8353 18.6342 28.89C18.6781 28.9506 18.7236 29.0067 18.7721 29.0628C18.8206 29.1189 18.8615 29.1795 18.91 29.2341C18.9585 29.2886 18.9995 29.3508 19.048 29.4054C19.0965 29.4599 19.1374 29.5221 19.1859 29.5782C19.2344 29.6343 19.2754 29.6934 19.3239 29.7495C19.3724 29.8055 19.4148 29.8662 19.4618 29.9208C19.5088 29.9753 19.5528 30.0375 19.5997 30.0936C19.6467 30.1496 19.6907 30.2088 19.7392 30.2648C19.7822 30.3243 19.8282 30.3815 19.8771 30.4361C19.9196 30.4953 19.9666 30.5529 20.0151 30.6089C20.0636 30.665 20.1045 30.7241 20.153 30.7802C20.2015 30.8363 20.2425 30.897 20.291 30.9515C20.3395 31.0061 20.3804 31.0682 20.4289 31.1228C20.4774 31.1774 20.5183 31.2395 20.5669 31.2956C20.6154 31.3517 20.6563 31.4108 20.7048 31.4669C20.7533 31.523 20.7942 31.5836 20.8427 31.6382C20.8912 31.6928 20.9337 31.7549 20.9807 31.811C21.0277 31.8671 21.0716 31.9262 21.1186 31.9823C21.1656 32.0384 21.2096 32.099 21.2566 32.1536C21.3036 32.2082 21.3475 32.2703 21.3945 32.3264C21.4415 32.3825 21.4855 32.4416 21.534 32.4977C21.577 32.5571 21.623 32.6143 21.6719 32.669C21.7159 32.7281 21.7613 32.7857 21.8098 32.8418C21.8584 32.8979 21.8993 32.957 21.9478 33.0131L21.9933 33.0722V33.0828L22.0751 33.1813C22.0809 33.1891 22.0875 33.1962 22.0948 33.2025C22.1191 33.2313 22.1448 33.2601 22.1706 33.2874L22.1994 33.3178C22.2222 33.342 22.2464 33.3663 22.2707 33.389C22.283 33.4024 22.2962 33.415 22.3101 33.4269C22.3313 33.4481 22.354 33.4678 22.3768 33.4875L22.4238 33.5285L22.4889 33.583L22.5405 33.6224L22.6087 33.674L22.6587 33.7104L22.7345 33.7604L22.7815 33.7907C22.8103 33.8089 22.8391 33.8271 22.8694 33.8437L22.9058 33.865L23.0104 33.9211L23.0331 33.9332C23.0741 33.9544 23.1165 33.9741 23.1589 33.9923C23.4476 34.1209 23.7544 34.2042 24.0684 34.2394L24.1973 34.2515H24.2352H24.3307H24.4747H24.5581H24.6308H24.7096L24.793 34.2424L24.8567 34.2333L24.9567 34.2182H25.0007L25.1174 34.1924H25.1401L25.2735 34.1575C25.6534 34.049 26.0086 33.8678 26.3195 33.624L26.3301 33.6164C26.3634 33.5911 26.3968 33.5638 26.4301 33.5345L26.4513 33.5163L26.5347 33.4405L26.5665 33.4102L26.6378 33.339L26.6742 33.3011L26.7363 33.2329L26.7606 33.2056C26.8167 33.151 26.8697 33.0934 26.9197 33.0358C26.9698 32.9782 27.0289 32.9236 27.0713 32.866C27.1138 32.8084 27.1805 32.7539 27.2305 32.6963C27.2805 32.6387 27.3396 32.5841 27.3897 32.5265C27.4397 32.4689 27.4988 32.4143 27.5412 32.3567C27.5837 32.2991 27.6504 32.2445 27.7004 32.1869C27.7504 32.1293 27.8095 32.0748 27.852 32.0172C27.8944 31.9596 27.9611 31.905 28.0111 31.8459C28.0612 31.7868 28.1203 31.7352 28.1703 31.6761C28.2203 31.617 28.2794 31.5654 28.3219 31.5063C28.3643 31.4472 28.431 31.3957 28.4811 31.3365C28.5311 31.2774 28.5902 31.2259 28.6326 31.1668C28.6751 31.1077 28.7418 31.0561 28.7918 30.997C28.8418 30.9379 28.9009 30.8863 28.951 30.8272C29.001 30.7681 29.0601 30.7166 29.1026 30.6575C29.145 30.5983 29.2117 30.5468 29.2617 30.4877C29.3117 30.4286 29.3709 30.377 29.4133 30.3179C29.4557 30.2588 29.5224 30.2072 29.5725 30.1481C29.6225 30.089 29.6816 30.0375 29.7316 29.9784C29.7816 29.9192 29.8408 29.8677 29.8832 29.8086C29.9257 29.7495 29.9923 29.6979 30.0424 29.6388C30.0924 29.5797 30.1515 29.5281 30.194 29.469C30.2364 29.4099 30.3031 29.3584 30.3531 29.2993C30.4031 29.2401 30.4623 29.1886 30.5123 29.1295C30.5623 29.0704 30.6214 29.0188 30.6639 28.9597C30.7063 28.9006 30.773 28.8491 30.823 28.7899C30.8731 28.7308 30.9322 28.6793 30.9746 28.6202C31.0171 28.561 31.0838 28.5095 31.1338 28.4504C31.1838 28.3913 31.2429 28.3397 31.2929 28.2806C31.343 28.2215 31.4021 28.17 31.4445 28.1108C31.487 28.0517 31.5537 28.0002 31.6037 27.9411C31.6537 27.8819 31.7128 27.8304 31.7553 27.7713C31.7977 27.7122 31.8644 27.6606 31.9144 27.6015C31.9645 27.5424 32.0236 27.4909 32.0736 27.4317C32.1236 27.3726 32.1827 27.3211 32.2252 27.262C32.2676 27.2029 32.3343 27.1513 32.3843 27.0922C32.4344 27.0331 32.4935 26.9815 32.5359 26.9224C32.5784 26.8633 32.6451 26.8118 32.6951 26.7526C32.7451 26.6935 32.8042 26.642 32.8543 26.5829C32.9043 26.5238 32.9634 26.4722 33.0058 26.4131C33.0483 26.354 33.115 26.3024 33.165 26.2433C33.215 26.1842 33.2741 26.1327 33.3166 26.0735C33.359 26.0144 33.4242 25.9629 33.4757 25.9038C33.5273 25.8447 33.5834 25.7931 33.6349 25.734C33.6865 25.6749 33.7441 25.6233 33.7865 25.5642C33.8289 25.5051 33.8941 25.4536 33.9457 25.3945C33.9972 25.3353 34.0533 25.2838 34.0972 25.2247C34.1412 25.1656 34.2049 25.114 34.2564 25.0549C34.3079 24.9958 34.364 24.9442 34.4156 24.8851C34.4671 24.826 34.5232 24.7745 34.5672 24.7138C34.6111 24.6532 34.6748 24.6047 34.7263 24.5441C34.7779 24.4834 34.8339 24.4349 34.8779 24.3743C34.9219 24.3137 34.9855 24.2652 35.0371 24.2045C35.0886 24.1439 35.1447 24.0954 35.1962 24.0347C35.2478 23.9741 35.3039 23.9256 35.3478 23.865C35.3918 23.8043 35.4554 23.7558 35.507 23.6952C35.5585 23.6346 35.6146 23.5845 35.6586 23.5254C35.7025 23.4663 35.7662 23.4148 35.8177 23.3556C35.8693 23.2965 35.9253 23.245 35.9769 23.1859C36.0284 23.1268 36.0845 23.0752 36.1285 23.0161C36.1724 22.957 36.2361 22.9054 36.2876 22.8463C36.3392 22.7872 36.3953 22.7357 36.4392 22.6766C36.4832 22.6174 36.5468 22.5659 36.5984 22.5068C36.6499 22.4477 36.706 22.3961 36.7575 22.337C36.8091 22.2779 36.8652 22.2263 36.9091 22.1672C36.9531 22.1081 37.0168 22.0566 37.0683 21.9975C37.1198 21.9383 37.1759 21.8868 37.2199 21.8277C37.2638 21.7686 37.3275 21.717 37.3715 21.6579L37.3723 21.6632C37.5312 21.4937 37.5312 21.4937 37.6901 21.3243L37.6881 21.3214C37.8486 21.1503 37.8486 21.1503 38.009 20.9792L38.0071 20.974C38.166 20.8045 38.166 20.8045 38.3248 20.635L38.3292 20.64C38.4881 20.4705 38.4881 20.4705 38.6469 20.3011C38.7009 20.2467 38.7539 20.1891 38.8054 20.1299C38.9121 20.0167 39.0182 19.903 39.1238 19.7889C39.1803 19.7356 39.2334 19.6789 39.2829 19.6191L39.2849 19.6168C39.4438 19.4473 39.4438 19.4473 39.6026 19.2779L39.6013 19.2796C39.6574 19.2259 39.7105 19.1693 39.7604 19.1098C39.8166 19.0557 39.8697 18.9985 39.9196 18.9385C39.9769 18.886 40.0301 18.8293 40.0788 18.7687C40.1361 18.7159 40.1898 18.6591 40.2394 18.5989L40.2382 18.6007C40.3971 18.4313 40.3971 18.4313 40.5559 18.2618L40.5578 18.2594C40.6143 18.2056 40.6674 18.1484 40.7169 18.0881C40.7734 18.0349 40.8266 17.9782 40.8761 17.9183C40.9326 17.8651 40.9857 17.8084 41.0352 17.7486C41.0892 17.6951 41.1398 17.6384 41.1868 17.5788C41.2438 17.5259 41.2969 17.4692 41.346 17.409C41.403 17.3558 41.4567 17.2991 41.5067 17.2392C41.5632 17.1855 41.6164 17.1283 41.6658 17.0679C41.7223 17.0147 41.7755 16.958 41.825 16.8982C41.8815 16.8449 41.9347 16.7882 41.9842 16.7284C42.0381 16.6749 42.0887 16.6182 42.1357 16.5586C42.1919 16.505 42.245 16.4483 42.2949 16.3888C42.3522 16.3359 42.4054 16.2786 42.4541 16.2176C42.5117 16.1655 42.565 16.1087 42.6132 16.0478C42.6706 15.9949 42.7243 15.9382 42.7739 15.878C42.8278 15.8245 42.8784 15.7678 42.9255 15.7082C42.982 15.655 43.0352 15.5983 43.0847 15.5385C43.1408 15.4848 43.1939 15.4282 43.2438 15.3687C43.3003 15.3149 43.3535 15.2577 43.403 15.1974C43.5466 15.159 43.6832 15.0981 43.8077 15.017C43.8621 14.9667 43.9128 14.9125 43.9593 14.8548C44.0166 14.8023 44.0698 14.7456 44.1185 14.685C44.1758 14.6326 44.229 14.5758 44.2776 14.5153C44.335 14.4619 44.3887 14.4047 44.4383 14.344C44.4952 14.2911 44.5484 14.2344 44.5975 14.1742C44.6543 14.1213 44.7075 14.0646 44.7566 14.0044C44.8109 13.9513 44.8616 13.8946 44.9082 13.8347C44.9655 13.7822 45.0187 13.7254 45.0674 13.6649C45.1294 13.6118 45.1867 13.5535 45.2387 13.4906C45.4464 13.3 45.5978 13.056 45.6765 12.7852C45.7551 12.5145 45.7579 12.2274 45.6846 11.9551C45.6112 11.6829 45.4646 11.4361 45.2606 11.2414C45.0566 11.0468 44.8031 10.9119 44.5277 10.8515V10.8469Z" fill="url(#paint0_linear_40_285)"/>
<path d="M21.5249 22.7828C21.584 22.8283 21.6401 22.8753 21.6947 22.9238C21.7493 22.9723 21.8099 23.0178 21.8645 23.0663C21.919 23.1148 21.9797 23.1588 22.0342 23.2073L22.204 23.3497C22.2616 23.3952 22.3177 23.4437 22.3738 23.4922C22.4299 23.5407 22.4875 23.5847 22.542 23.6332C22.5966 23.6817 22.6572 23.7272 22.7118 23.7757C22.7664 23.8242 22.827 23.8697 22.8816 23.9167C22.9362 23.9637 22.9968 24.0107 23.0514 24.0592C23.1059 24.1077 23.1666 24.1531 23.2196 24.2016C23.2727 24.2502 23.3363 24.2956 23.3894 24.3426C23.4424 24.3896 23.5046 24.4366 23.5592 24.4851C23.6137 24.5336 23.6744 24.5791 23.7289 24.6276C23.7835 24.6761 23.8441 24.7216 23.8987 24.7686C23.9533 24.8156 24.0139 24.8626 24.0685 24.9111C24.1231 24.9596 24.1837 25.005 24.2383 25.0536C24.2928 25.1021 24.3504 25.1445 24.4035 25.1915C24.4611 25.14 24.5187 25.093 24.5748 25.0399C24.6309 24.9869 24.693 24.9368 24.7521 24.8883C24.8112 24.8398 24.8704 24.7852 24.9295 24.7367C24.9886 24.6882 25.0477 24.6337 25.1068 24.5852C25.166 24.5366 25.2251 24.4821 25.2842 24.4336C25.3433 24.3851 25.4024 24.3305 25.4615 24.282C25.5207 24.2335 25.5798 24.1789 25.6389 24.1304C25.698 24.0819 25.7571 24.0273 25.8163 23.9788C25.8754 23.9303 25.9345 23.8757 25.9936 23.8272C26.0527 23.7787 26.1118 23.7242 26.171 23.6757C26.2301 23.6271 26.2892 23.5726 26.3483 23.5241C26.4074 23.4756 26.4665 23.421 26.5257 23.3725C26.5848 23.324 26.6439 23.2694 26.703 23.2209C26.7621 23.1724 26.8213 23.1178 26.8804 23.0693C26.9395 23.0208 26.9986 22.9662 27.0577 22.9177C27.1168 22.8692 27.1744 22.8147 27.2351 22.7661C27.2957 22.7176 27.3518 22.6631 27.4124 22.6146L27.4215 22.6055H21.346L21.3597 22.6176C21.4188 22.6858 21.4749 22.7373 21.5249 22.7828Z" fill="url(#paint1_linear_40_285)"/>
<path d="M31.14 19.4741C31.1976 19.4226 31.2568 19.372 31.3174 19.3225C31.375 19.2695 31.4341 19.2194 31.4948 19.1709C31.5554 19.1224 31.6115 19.0694 31.6721 19.0193C31.7327 18.9693 31.7888 18.9178 31.8495 18.8678C31.9101 18.8177 31.9662 18.7662 32.0268 18.7162C32.0874 18.6661 32.1435 18.6146 32.2042 18.5646C32.2648 18.5146 32.3209 18.463 32.3815 18.413C32.4421 18.363 32.4982 18.3114 32.5589 18.2614C32.6195 18.2114 32.6741 18.1599 32.7362 18.1098C32.7984 18.0598 32.8514 18.0068 32.9136 17.9582C32.9757 17.9097 33.0288 17.8567 33.0909 17.8067C33.1531 17.7566 33.2061 17.7051 33.2683 17.6551C33.3304 17.6051 33.3835 17.552 33.4456 17.5035C33.5078 17.455 33.5608 17.4019 33.623 17.3519C33.6851 17.3019 33.7382 17.2504 33.8003 17.2003C33.8625 17.1503 33.9171 17.0988 33.9777 17.0487C34.0383 16.9987 34.0944 16.9457 34.1551 16.8972C34.2157 16.8487 34.2718 16.7956 34.3324 16.7456C34.393 16.6956 34.4491 16.6425 34.5113 16.594C34.5734 16.5455 34.6265 16.4924 34.6886 16.4424C34.7508 16.3924 34.8038 16.3393 34.866 16.2908C34.9281 16.2423 34.9827 16.1893 35.0433 16.1392C35.104 16.0892 35.1601 16.0362 35.2207 15.9877C35.2813 15.9391 35.3374 15.8861 35.3996 15.8361C35.4617 15.786 35.4996 15.7482 35.5511 15.7057V15.4617C35.5511 14.44 35.5693 13.4153 35.5511 12.3936V12.3496C35.5511 11.1097 34.4612 9.92429 33.1804 9.97886C31.8995 10.0334 30.8081 11.0202 30.8081 12.3496V19.7515L30.9597 19.6211C31.0193 19.5767 31.0794 19.5276 31.14 19.4741Z" fill="url(#paint2_linear_40_285)"/>
<path d="M35.3358 26.2237C35.2842 26.2828 35.2312 26.3389 35.1766 26.3934C35.122 26.448 35.072 26.5086 35.0174 26.5632C34.9629 26.6178 34.9128 26.6784 34.8659 26.733C34.8189 26.7876 34.7613 26.8482 34.7067 26.9028C34.6521 26.9573 34.6021 27.018 34.5551 27.0725C34.5081 27.1271 34.4505 27.1877 34.3959 27.2423C34.3414 27.2969 34.2914 27.3575 34.2368 27.4121C34.1822 27.4667 34.1322 27.5273 34.0852 27.5819C34.0382 27.6364 33.9806 27.6971 33.926 27.7516C33.8715 27.8062 33.8214 27.8668 33.7745 27.9214C33.7275 27.976 33.6699 28.0366 33.6153 28.0912C33.5607 28.1458 33.5107 28.2064 33.4561 28.261C33.4016 28.3155 33.3515 28.3762 33.3045 28.4307C33.2576 28.4853 33.1999 28.5459 33.1454 28.6005C33.0908 28.6551 33.0423 28.7157 32.9938 28.7703C32.9453 28.8248 32.8907 28.8855 32.8346 28.94C32.7785 28.9946 32.7316 29.0553 32.6755 29.1098C32.6194 29.1644 32.5724 29.225 32.5239 29.2796C32.4754 29.3342 32.4208 29.3933 32.3647 29.4494C32.3086 29.5055 32.2616 29.5631 32.2131 29.6191C32.1646 29.6752 32.1101 29.7328 32.054 29.7889C31.9979 29.845 31.9509 29.9026 31.8948 29.9587C31.8387 30.0148 31.7917 30.0724 31.7432 30.1285C31.6947 30.1846 31.6401 30.2422 31.5841 30.2982C31.528 30.3543 31.481 30.4119 31.4325 30.468C31.384 30.5241 31.3294 30.5817 31.2733 30.6378C31.2172 30.6939 31.1702 30.7515 31.1217 30.8076C31.0732 30.8637 31.0171 30.9213 30.9611 30.9773L30.8913 31.0546V34.529C30.8913 35.5506 30.8746 36.5753 30.8913 37.597C30.8921 37.6117 30.8921 37.6263 30.8913 37.641C30.8913 38.8809 31.9827 40.0663 33.2636 40.0117C34.5445 39.9572 35.6344 38.9704 35.6344 37.641V25.9978C35.6147 26.019 35.5965 26.0402 35.5768 26.06C35.4434 26.1191 35.3903 26.1752 35.3358 26.2237Z" fill="url(#paint3_linear_40_285)"/>
<path d="M15.4388 17.6839C15.4965 17.7294 15.5541 17.7763 15.6086 17.8249C15.6632 17.8734 15.7223 17.9173 15.7769 17.9658C15.8315 18.0143 15.8921 18.0583 15.9467 18.1083C16.0012 18.1583 16.0603 18.2008 16.1149 18.2493C16.1695 18.2978 16.2286 18.3418 16.2847 18.3903C16.3408 18.4388 16.3984 18.4827 16.4529 18.5328C16.5075 18.5828 16.5666 18.6252 16.6227 18.6737C16.6788 18.7222 16.7364 18.7662 16.791 18.8147C16.8455 18.8632 16.9047 18.9072 16.9592 18.9572C17.0138 19.0072 17.0744 19.0497 17.129 19.0982C17.1836 19.1467 17.2427 19.1906 17.2988 19.2391C17.3549 19.2876 17.4125 19.3316 17.467 19.3816C17.5216 19.4316 17.5807 19.4741 17.6368 19.5226C17.6929 19.5711 17.7505 19.6151 17.8051 19.6636C17.8596 19.7121 17.9188 19.756 17.9733 19.8061C17.9991 19.8258 18.0234 19.847 18.0476 19.8682V15.4617C18.0476 14.44 18.0658 13.4153 18.0476 12.3936V12.3496C18.0476 11.1097 16.9577 9.92429 15.6768 9.97886C14.3959 10.0334 13.3061 11.0233 13.3061 12.3527V16.7683C14.0354 16.7774 14.7363 17.0529 15.2767 17.5429C15.3282 17.5838 15.3843 17.6354 15.4388 17.6839Z" fill="url(#paint4_linear_40_285)"/>
<path d="M17.8869 30.3426C17.8399 30.285 17.7929 30.2274 17.749 30.1698C17.705 30.1122 17.655 30.0561 17.611 29.9985C17.5671 29.9409 17.517 29.8848 17.4731 29.8272C17.4291 29.7696 17.3791 29.7135 17.3351 29.6544C17.2912 29.5953 17.2411 29.5407 17.1972 29.4831C17.1532 29.4255 17.1032 29.3694 17.0592 29.3118C17.0153 29.2542 16.9653 29.1981 16.9213 29.1405C16.8773 29.0829 16.8273 29.0268 16.7834 28.9677C16.7394 28.9086 16.6894 28.854 16.6454 28.7964C16.6015 28.7388 16.5514 28.6827 16.5075 28.6251C16.4635 28.5675 16.4135 28.5114 16.3695 28.4538C16.3256 28.3962 16.2756 28.3402 16.2316 28.281C16.1876 28.2219 16.1376 28.1689 16.0937 28.1097C16.0497 28.0506 15.9997 27.9961 15.9542 27.9385C15.9087 27.8808 15.8617 27.8248 15.8163 27.7672C15.7708 27.7096 15.7223 27.6535 15.6783 27.5944C15.6344 27.5352 15.5843 27.4822 15.5404 27.4231C15.4964 27.3639 15.4464 27.3094 15.4024 27.2518C15.3585 27.1942 15.3085 27.1381 15.2645 27.0805C15.2205 27.0229 15.1705 26.9668 15.1266 26.9077C15.0826 26.8486 15.0326 26.7955 14.9886 26.7364C14.9447 26.6773 14.8946 26.6242 14.8507 26.5651C14.8067 26.506 14.7567 26.4514 14.7127 26.3923C14.6688 26.3332 14.6187 26.2801 14.5748 26.221C14.5308 26.1619 14.4808 26.1088 14.4368 26.0497C14.3929 25.9906 14.3429 25.9375 14.2989 25.8784C14.2549 25.8193 14.2049 25.7647 14.161 25.7056C14.117 25.6465 14.067 25.5934 14.023 25.5343C13.9791 25.4752 13.929 25.4222 13.8851 25.363C13.8411 25.3039 13.7911 25.2509 13.7456 25.1917C13.7001 25.1326 13.6532 25.0781 13.6077 25.0189C13.5622 24.9598 13.5152 24.9068 13.4697 24.8477C13.4243 24.7885 13.3773 24.7355 13.3318 24.6764L13.306 24.6445V24.8416C13.303 24.8946 13.303 24.9477 13.306 25.0008V34.5354C13.306 35.5571 13.2878 36.5818 13.306 37.6035V37.6474C13.306 38.8874 14.3959 40.0728 15.6768 40.0182C16.9577 39.9636 18.0476 38.9768 18.0476 37.6474V30.5427L18.0248 30.5139L17.8869 30.3426Z" fill="url(#paint5_linear_40_285)"/>
<defs>
<linearGradient id="paint0_linear_40_285" x1="28.7236" y1="11.8171" x2="28.7873" y2="37.1331" gradientUnits="userSpaceOnUse">
<stop stop-color="white"/>
<stop offset="0.44" stop-color="#F8FDFF"/>
<stop offset="1" stop-color="#E8F8FF"/>
</linearGradient>
<linearGradient id="paint1_linear_40_285" x1="24.358" y1="11.8294" x2="24.4232" y2="37.1454" gradientUnits="userSpaceOnUse">
<stop stop-color="white"/>
<stop offset="0.44" stop-color="#F8FDFF"/>
<stop offset="1" stop-color="#E8F8FF"/>
</linearGradient>
<linearGradient id="paint2_linear_40_285" x1="33.1728" y1="11.807" x2="33.238" y2="37.123" gradientUnits="userSpaceOnUse">
<stop stop-color="white"/>
<stop offset="0.44" stop-color="#F8FDFF"/>
<stop offset="1" stop-color="#E8F8FF"/>
</linearGradient>
<linearGradient id="paint3_linear_40_285" x1="33.1272" y1="11.8065" x2="33.1924" y2="37.1226" gradientUnits="userSpaceOnUse">
<stop stop-color="white"/>
<stop offset="0.44" stop-color="#F8FDFF"/>
<stop offset="1" stop-color="#E8F8FF"/>
</linearGradient>
<linearGradient id="paint4_linear_40_285" x1="15.6723" y1="11.8509" x2="15.7375" y2="37.167" gradientUnits="userSpaceOnUse">
<stop stop-color="white"/>
<stop offset="0.44" stop-color="#F8FDFF"/>
<stop offset="1" stop-color="#E8F8FF"/>
</linearGradient>
<linearGradient id="paint5_linear_40_285" x1="15.6177" y1="11.8508" x2="15.6813" y2="37.1669" gradientUnits="userSpaceOnUse">
<stop stop-color="white"/>
<stop offset="0.44" stop-color="#F8FDFF"/>
<stop offset="1" stop-color="#E8F8FF"/>
</linearGradient>
</defs>
</svg>
