<svg width="30" height="30" viewBox="0 0 30 30" fill="none" xmlns="http://www.w3.org/2000/svg">
<path fill-rule="evenodd" clip-rule="evenodd" d="M0 2.14286C0 0.95939 0.95939 0 2.14286 0H27.8571C29.0406 0 30 0.95939 30 2.14286C30 3.32632 29.0406 4.28571 27.8571 4.28571H2.14286C0.95939 4.28571 0 3.32632 0 2.14286ZM0 10.7143C0 9.53082 0.95939 8.57143 2.14286 8.57143H27.8571C29.0406 8.57143 30 9.53082 30 10.7143C30 11.8978 29.0406 12.8571 27.8571 12.8571H2.14286C0.95939 12.8571 0 11.8978 0 10.7143ZM0 19.2857C0 18.1022 0.95939 17.1429 2.14286 17.1429H27.8571C29.0406 17.1429 30 18.1022 30 19.2857C30 20.4692 29.0406 21.4286 27.8571 21.4286H2.14286C0.95939 21.4286 0 20.4692 0 19.2857ZM0 27.8571C0 26.6737 0.95939 25.7143 2.14286 25.7143H27.8571C29.0406 25.7143 30 26.6737 30 27.8571C30 29.0406 29.0406 30 27.8571 30H2.14286C0.95939 30 0 29.0406 0 27.8571Z" fill="white"/>
</svg>
