<svg width="67" height="14" viewBox="0 0 67 14" fill="none" xmlns="http://www.w3.org/2000/svg">
<path d="M13.7789 8.69413C12.8446 12.4441 9.0491 14.7263 5.30125 13.7911C1.55493 12.8562 -0.725693 9.05791 0.209028 5.30815C1.14287 1.55774 4.93838 -0.724659 8.68513 0.210264C12.4328 1.14519 14.7132 4.94394 13.7789 8.69413Z" fill="#F7931A"/>
<path d="M10.078 6.00355C10.2172 5.07212 9.50852 4.57141 8.53948 4.23738L8.85382 2.97565L8.08633 2.78425L7.78029 4.01273C7.57853 3.96242 7.37129 3.91495 7.16537 3.86792L7.4736 2.63134L6.70654 2.43994L6.39198 3.70123C6.22497 3.66317 6.06102 3.62555 5.90188 3.58596L5.90276 3.58202L4.84431 3.31755L4.64015 4.13785C4.64015 4.13785 5.20959 4.26844 5.19757 4.27654C5.50841 4.35419 5.56459 4.56003 5.55519 4.72322L5.19713 6.1606C5.21855 6.16607 5.24632 6.17395 5.27692 6.1862C5.25134 6.17985 5.22402 6.17285 5.19582 6.16607L4.69392 8.17964C4.65588 8.27413 4.55948 8.41588 4.3422 8.36207C4.34985 8.37322 3.78434 8.22273 3.78434 8.22273L3.40332 9.10187L4.40209 9.35102C4.5879 9.39761 4.76999 9.44639 4.94924 9.49233L4.63162 10.7685L5.39824 10.9599L5.7128 9.6973C5.92221 9.75417 6.12551 9.80667 6.32443 9.85611L6.01097 11.1128L6.77846 11.3042L7.09608 10.0304C8.40482 10.2783 9.38895 10.1783 9.80319 8.99381C10.137 8.04007 9.78657 7.48993 9.09799 7.13118C9.59945 7.01547 9.97719 6.68538 10.078 6.00355ZM8.32438 8.46422C8.0872 9.41796 6.48248 8.90237 5.96222 8.77309L6.38367 7.0824C6.90393 7.21233 8.57227 7.46958 8.32438 8.46422ZM8.56177 5.98976C8.34536 6.85731 7.00973 6.41653 6.57647 6.30847L6.95859 4.77506C7.39184 4.88313 8.78715 5.08481 8.56177 5.98976Z" fill="white"/>
<path d="M20.4988 4.23608C21.066 4.23608 21.5561 4.3378 21.968 4.53751C22.3818 4.7392 22.7232 5.01088 22.9971 5.35256C23.2673 5.696 23.4684 6.0974 23.5983 6.55742C23.7272 7.01876 23.792 7.51466 23.792 8.04556C23.792 8.86104 23.6427 9.63147 23.3412 10.3577C23.0398 11.085 22.6308 11.7159 22.1105 12.254C21.5907 12.7915 20.9769 13.2152 20.269 13.5282C19.5623 13.8415 18.794 13.9981 17.969 13.9981C17.8623 13.9981 17.6747 13.995 17.4098 13.9896C17.1449 13.9841 16.8404 13.9567 16.4993 13.9106C16.1561 13.8627 15.7933 13.7918 15.4101 13.6969C15.0271 13.6037 14.6633 13.4731 14.3208 13.3073L17.3838 0.428363L20.1272 0.00289917L19.0305 4.57317C19.2652 4.4673 19.5018 4.38527 19.7378 4.32555C19.9742 4.26671 20.2277 4.23608 20.4988 4.23608ZM18.1976 11.8202C18.6108 11.8202 19.0001 11.7185 19.3658 11.5188C19.7326 11.3189 20.0491 11.0489 20.3143 10.7127C20.5795 10.375 20.7893 9.99459 20.9423 9.56956C21.0953 9.14454 21.1727 8.70114 21.1727 8.2398C21.1727 7.67303 21.0781 7.23094 20.8894 6.91135C20.7008 6.59308 20.3517 6.43295 19.8447 6.43295C19.6786 6.43295 19.4646 6.46467 19.1992 6.52133C18.933 6.58148 18.6947 6.70639 18.4811 6.89429L17.3134 11.7478C17.3838 11.7603 17.4461 11.7721 17.4992 11.7833C17.5512 11.7953 17.6087 11.8038 17.666 11.8097C17.7265 11.8165 17.7958 11.82 17.8796 11.82C17.9633 11.82 18.068 11.8202 18.1976 11.8202Z" fill="white"/>
<path d="M26.6369 13.7516H24.0166L26.2295 4.43362H28.8677L26.6369 13.7516ZM27.912 3.29832C27.5463 3.29832 27.2147 3.18939 26.9204 2.97108C26.6238 2.75408 26.4769 2.42005 26.4769 1.96987C26.4769 1.72225 26.5272 1.48994 26.6269 1.27076C26.7281 1.05201 26.8603 0.863672 27.026 0.70355C27.1915 0.54474 27.3832 0.417864 27.6009 0.322272C27.82 0.228211 28.053 0.181183 28.3013 0.181183C28.6668 0.181183 28.9967 0.290119 29.292 0.508428C29.5862 0.727831 29.7342 1.06186 29.7342 1.50963C29.7342 1.75813 29.6842 1.99131 29.5836 2.21006C29.4837 2.4288 29.3515 2.61714 29.1858 2.77726C29.0216 2.93629 28.8281 3.06273 28.6109 3.15745C28.3916 3.25304 28.1595 3.29832 27.912 3.29832Z" fill="white"/>
<path d="M31.1641 2.11205L33.9086 1.68658L33.2347 4.43317H36.1739L35.6432 6.59394H32.7216L31.9434 9.85327C31.8717 10.125 31.8311 10.3787 31.8197 10.6145C31.8068 10.8514 31.8368 11.0548 31.9076 11.2261C31.978 11.3978 32.1045 11.5302 32.2882 11.6238C32.4709 11.719 32.7326 11.7669 33.0758 11.7669C33.3584 11.7669 33.6338 11.74 33.9001 11.6866C34.1648 11.6341 34.433 11.561 34.7045 11.4654L34.9 13.4858C34.5458 13.6157 34.1624 13.7275 33.7493 13.8216C33.3355 13.9169 32.8456 13.9629 32.2794 13.9629C31.4654 13.9629 30.8343 13.8419 30.3846 13.6011C29.9356 13.3585 29.6182 13.0271 29.4283 12.6075C29.2409 12.1895 29.1572 11.7076 29.1806 11.1647C29.2049 10.6204 29.2868 10.0484 29.4283 9.44597L31.1641 2.11205Z" fill="white"/>
<path d="M36.0581 10.0307C36.0581 9.22808 36.188 8.47122 36.4474 7.7627C36.7065 7.05353 37.0796 6.43338 37.5638 5.90117C38.0462 5.37158 38.6341 4.95202 39.3259 4.64403C40.0145 4.33778 40.7855 4.18335 41.6352 4.18335C42.167 4.18335 42.642 4.23366 43.06 4.33451C43.4797 4.43622 43.8594 4.56769 44.2028 4.73263L43.2991 6.78884C43.063 6.69303 42.818 6.60859 42.5646 6.53203C42.3111 6.45394 42.0015 6.41632 41.6354 6.41632C40.7608 6.41632 40.0694 6.71797 39.5548 7.3193C39.0422 7.92107 38.784 8.73109 38.784 9.74717C38.784 10.3494 38.9139 10.8363 39.1744 11.2088C39.4337 11.5814 39.9126 11.7666 40.608 11.7666C40.9512 11.7666 41.2824 11.7308 41.5995 11.6608C41.9191 11.5899 42.2013 11.5006 42.4499 11.3952L42.6455 13.5031C42.3141 13.6317 41.9486 13.7478 41.5477 13.8495C41.146 13.9478 40.6677 13.9987 40.1131 13.9987C39.381 13.9987 38.7613 13.8915 38.2543 13.6805C37.7472 13.4661 37.3282 13.1815 36.9981 12.821C36.6662 12.4596 36.428 12.0377 36.2806 11.5534C36.1333 11.0695 36.0581 10.5611 36.0581 10.0307Z" fill="white"/>
<path d="M47.6985 13.9987C47.0731 13.9987 46.5299 13.9034 46.0691 13.7146C45.6096 13.5258 45.229 13.2609 44.928 12.9175C44.6266 12.5758 44.401 12.1709 44.2464 11.7043C44.0919 11.2379 44.0176 10.7215 44.0176 10.1556C44.0176 9.44574 44.1315 8.73612 44.3617 8.02848C44.5907 7.3193 44.9307 6.6821 45.3805 6.11576C45.8269 5.54855 46.3776 5.0848 47.0259 4.72321C47.6736 4.36403 48.4186 4.18335 49.2554 4.18335C49.8694 4.18335 50.4098 4.27894 50.8769 4.46772C51.3419 4.65606 51.7249 4.92315 52.0276 5.26483C52.3271 5.60827 52.5547 6.01142 52.7077 6.47866C52.8618 6.94415 52.9379 7.46192 52.9379 8.02826C52.9379 8.7359 52.8255 9.44552 52.6025 10.1553C52.3794 10.8617 52.0482 11.5004 51.611 12.0681C51.1747 12.6344 50.629 13.0979 49.9737 13.458C49.3192 13.818 48.5602 13.9987 47.6985 13.9987ZM49.0082 6.41654C48.6197 6.41654 48.2763 6.5294 47.9823 6.75231C47.6872 6.97783 47.4393 7.26133 47.2395 7.60323C47.0375 7.94667 46.8878 8.32116 46.7865 8.72825C46.6862 9.13621 46.637 9.52186 46.637 9.88827C46.637 10.4795 46.7323 10.94 46.9197 11.2714C47.1096 11.6011 47.4509 11.7669 47.9469 11.7669C48.3366 11.7669 48.6783 11.6549 48.9741 11.4296C49.2674 11.2058 49.5155 10.9221 49.7168 10.5795C49.9175 10.2378 50.0686 9.86223 50.1698 9.45449C50.2688 9.04784 50.3193 8.66 50.3193 8.29425C50.3193 7.70451 50.2244 7.24296 50.0353 6.91199C49.8465 6.58234 49.5037 6.41654 49.0082 6.41654Z" fill="white"/>
<path d="M55.7934 13.7516H53.1709L55.3838 4.43362H58.0233L55.7934 13.7516ZM57.0665 3.29832C56.701 3.29832 56.3696 3.18939 56.0758 2.97108C55.7807 2.75408 55.6325 2.42005 55.6325 1.96987C55.6325 1.72225 55.6834 1.48994 55.7833 1.27076C55.8832 1.05201 56.0164 0.863672 56.1821 0.70355C56.3467 0.54474 56.5401 0.417864 56.7574 0.322272C56.9751 0.228211 57.2082 0.181183 57.4556 0.181183C57.822 0.181183 58.1529 0.290119 58.4476 0.508428C58.7425 0.727831 58.8914 1.06186 58.8914 1.50963C58.8914 1.75813 58.8385 1.99131 58.7394 2.21006C58.6404 2.4288 58.5073 2.61714 58.3422 2.77726C58.1761 2.93629 57.9851 3.06273 57.7673 3.15745C57.5479 3.25304 57.3153 3.29832 57.0665 3.29832Z" fill="white"/>
<path d="M59.9114 4.8573C60.1103 4.79912 60.3324 4.72912 60.574 4.653C60.8164 4.57687 61.0872 4.506 61.3898 4.44213C61.689 4.37628 62.0268 4.32291 62.3982 4.28156C62.7696 4.23935 63.1928 4.21878 63.663 4.21878C65.0449 4.21878 65.9976 4.6215 66.5235 5.42452C67.049 6.22754 67.14 7.32652 66.799 8.71949L65.5936 13.7507H62.956L64.1242 8.82537C64.1955 8.51781 64.2514 8.22053 64.2928 7.93004C64.3345 7.64217 64.3321 7.38842 64.2834 7.1688C64.2368 6.95181 64.1271 6.77418 63.9568 6.63659C63.7839 6.50118 63.5226 6.43316 63.1683 6.43316C62.8266 6.43316 62.479 6.46991 62.1243 6.54078L60.4067 13.7504H57.7681L59.9114 4.8573Z" fill="white"/>
</svg>
