<svg width="123" height="27" viewBox="0 0 123 27" fill="none" xmlns="http://www.w3.org/2000/svg">
<path d="M16.0733 1.02742C14.5656 1.02742 13.3662 2.26102 13.3662 3.73449V11.3074H5.96462V3.73449C5.96462 2.26102 4.76529 1.02742 3.25755 1.02742C1.78409 1.02742 0.550485 2.26102 0.550485 3.73449V23.6777C0.550485 25.1512 1.78409 26.3848 3.25755 26.3848C4.76529 26.3848 5.96462 25.1512 5.96462 23.6777V16.1048H13.3662V23.6777C13.3662 25.1512 14.5656 26.3848 16.0733 26.3848C17.5468 26.3848 18.7804 25.1512 18.7804 23.6777V3.73449C18.7804 2.26102 17.5468 1.02742 16.0733 1.02742ZM51.1345 22.5469L42.2595 2.70648C41.9511 2.05542 41.4713 1.54142 40.8203 1.26728C40.1349 0.99315 39.2783 0.99315 38.5929 1.26728C37.9761 1.54142 37.4279 2.05542 37.1537 2.70648L28.2787 22.5469C27.6619 23.9176 28.2787 25.5624 29.6493 26.1449C30.8487 26.6589 32.5277 26.3162 33.2473 24.74L34.4809 22.0329H44.9665L46.1659 24.74C46.8855 26.3505 48.6331 26.7274 49.7639 26.1449C51.1003 25.4596 51.7513 23.9176 51.1345 22.5469ZM36.9481 16.5845L39.7237 10.348L42.4993 16.5845H36.9481ZM69.2991 1.02742H63.7136C62.2059 1.02742 60.9723 2.26102 60.9723 3.76875V23.6434C60.9723 25.1169 62.1374 26.3848 63.6108 26.3848H69.2991C76.2895 26.3848 81.9778 20.6965 81.9778 13.7061C81.9778 6.71569 76.2895 1.02742 69.2991 1.02742ZM69.2991 20.9021H66.455V6.51009H69.2991C73.2398 6.51009 76.4608 9.73116 76.4608 13.7061C76.4608 17.681 73.2398 20.9021 69.2991 20.9021ZM93.9237 26.3848C92.416 26.3848 91.2167 25.1512 91.2167 23.6777V3.73449C91.2167 2.26102 92.416 1.02742 93.9237 1.02742C95.4315 1.02742 96.6308 2.26102 96.6308 3.73449V23.6777C96.6308 25.1512 95.4315 26.3848 93.9237 26.3848ZM121.994 22.2385L118.19 15.7964C120.657 14.4942 122.302 11.89 122.302 8.87449C122.302 4.55689 118.807 1.02742 114.455 1.02742H109.109C107.636 1.02742 106.402 2.26102 106.402 3.76875V23.6434C106.402 25.1512 107.636 26.3848 109.109 26.3848C110.651 26.3848 111.885 25.1512 111.885 23.6434V16.7558H112.399L117.265 25.0484C118.122 26.4876 119.801 26.6932 121 25.9736C122.302 25.1854 122.748 23.5749 121.994 22.2385ZM116.854 8.87449C116.854 10.2452 115.791 11.2732 114.455 11.2732H111.885V6.51009H114.455C115.791 6.51009 116.854 7.57235 116.854 8.87449Z" fill="white"/>
</svg>
