<svg width="50" height="50" viewBox="0 0 50 50" fill="none" xmlns="http://www.w3.org/2000/svg">
<g clip-path="url(#clip0_146_472)">
<path d="M50 36.3587V13.6408C50 6.10706 43.8927 -0.000244141 36.359 -0.000244141L13.6411 -0.000244141C6.10731 -0.000244141 3.8147e-06 6.10706 3.8147e-06 13.6408V36.3587C3.8147e-06 43.8924 6.10731 49.9998 13.6411 49.9998H36.359C43.8927 49.9998 50 43.8924 50 36.3587Z" fill="white"/>
<path d="M44.5279 10.8469C44.2765 10.7915 44.0152 10.7999 43.7679 10.8714C43.5206 10.9429 43.2951 11.0752 43.1121 11.2562C43.0495 11.3026 42.9903 11.3533 42.9347 11.4078C42.8715 11.4533 42.8122 11.504 42.7574 11.5594C42.6944 11.6058 42.6346 11.6564 42.5785 11.711C42.5159 11.7573 42.4566 11.8079 42.4011 11.8625C42.3389 11.9093 42.2797 11.96 42.2238 12.0141C42.1612 12.0604 42.1019 12.1111 42.0464 12.1657C41.9839 12.2121 41.9247 12.2628 41.8691 12.3173C41.8059 12.3629 41.7466 12.4136 41.6917 12.4689C41.6283 12.5148 41.5685 12.5655 41.5129 12.6205C41.4503 12.6668 41.391 12.7174 41.3355 12.7721C41.2729 12.8184 41.2136 12.869 41.1581 12.9236C41.0956 12.97 41.0363 13.0206 40.9808 13.0752C40.9182 13.1215 40.8589 13.1722 40.8034 13.2268C40.7409 13.2732 40.6817 13.3239 40.6261 13.3784C40.5627 13.4243 40.5029 13.475 40.4472 13.53C40.385 13.5768 40.3258 13.6274 40.2699 13.6816C40.2073 13.7279 40.148 13.7785 40.0925 13.8331C40.0303 13.8799 39.9711 13.9306 39.9152 13.9847C39.8526 14.031 39.7933 14.0817 39.7378 14.1363C39.6751 14.1831 39.6154 14.2337 39.5589 14.2879C39.4963 14.3342 39.4371 14.3848 39.3816 14.4395C39.2639 14.5411 39.1456 14.6422 39.0269 14.7426C38.9091 14.8443 38.7909 14.9453 38.6722 15.0458C38.6095 15.0926 38.5497 15.1432 38.4933 15.1974C38.4314 15.2446 38.3722 15.2952 38.316 15.349C38.2537 15.3958 38.1945 15.4464 38.1386 15.5006C38.0767 15.5478 38.0175 15.5984 37.9612 15.6521C37.899 15.6989 37.8398 15.7496 37.7839 15.8037C37.722 15.8509 37.6628 15.9016 37.6065 15.9553C37.5438 16.0021 37.4841 16.0527 37.4277 16.1069C37.367 16.1539 37.3064 16.2039 37.2503 16.2585C37.1881 16.3053 37.1289 16.3559 37.073 16.4101C37.0111 16.4573 36.9519 16.5079 36.8956 16.5617C36.8334 16.6084 36.7742 16.6591 36.7183 16.7132C36.6561 16.7602 36.597 16.8102 36.5394 16.8648C36.4775 16.912 36.4183 16.9626 36.362 17.0164C36.3014 17.0634 36.2408 17.1134 36.1847 17.168C36.1225 17.2148 36.0632 17.2654 36.0073 17.3196C35.8886 17.42 35.7704 17.5211 35.6526 17.6227C35.5905 17.6697 35.5314 17.7198 35.4738 17.7743C35.4161 17.8289 35.3525 17.8729 35.2964 17.9259C35.2403 17.979 35.1751 18.0229 35.119 18.0775C35.063 18.1321 34.9978 18.176 34.9417 18.2291C34.8795 18.2759 34.8202 18.3265 34.7643 18.3807L34.7625 18.3809C34.5873 18.5307 34.5873 18.5307 34.412 18.6805C34.3475 18.7323 34.2884 18.7824 34.2323 18.8354C34.1704 18.8826 34.1112 18.9332 34.0549 18.987C33.9927 19.0338 33.9335 19.0844 33.8776 19.1386L33.88 19.1337C33.7014 19.2863 33.7015 19.2863 33.5229 19.4389L33.5229 19.4417C33.461 19.489 33.4018 19.5396 33.3455 19.5933C33.2834 19.6403 33.2242 19.6903 33.1666 19.7449C33.109 19.7995 33.0469 19.8419 32.9893 19.8965C32.9317 19.9511 32.8695 19.9935 32.8119 20.0481C32.7543 20.1027 32.6922 20.1451 32.6346 20.1997C32.577 20.2542 32.5148 20.2982 32.4572 20.3513C32.3996 20.4043 32.3375 20.4483 32.2799 20.5028C32.2223 20.5574 32.1601 20.5998 32.1025 20.6544C32.0449 20.709 31.9828 20.7529 31.9252 20.806C31.8676 20.8591 31.8054 20.903 31.7478 20.9576C31.6902 21.0122 31.6281 21.0561 31.5705 21.1092C31.5129 21.1622 31.4507 21.2062 31.3931 21.2608C31.3355 21.3153 31.2734 21.3578 31.2158 21.4123C31.1582 21.4669 31.096 21.5109 31.0384 21.5639C30.9808 21.617 30.9186 21.6609 30.861 21.7155C30.8034 21.7701 30.7413 21.814 30.6837 21.8671C30.6261 21.9201 30.5639 21.9641 30.5063 22.0187C30.4487 22.0732 30.3866 22.1157 30.329 22.1703C30.2714 22.2248 30.2092 22.2688 30.1516 22.3218C30.094 22.3749 30.0319 22.4189 29.9743 22.4734C29.9167 22.528 29.8545 22.572 29.7969 22.625C29.7393 22.6781 29.6772 22.7235 29.6196 22.7766C29.562 22.8296 29.4998 22.8736 29.4422 22.9282C29.3846 22.9827 29.3225 23.0267 29.2649 23.0798C29.2073 23.1328 29.1451 23.1768 29.0875 23.2313C29.0299 23.2859 28.9678 23.3299 28.9102 23.3829C28.8526 23.436 28.7904 23.4815 28.7328 23.5345C28.6752 23.5876 28.6131 23.6315 28.5555 23.6861C28.4979 23.7407 28.4357 23.7846 28.3781 23.8377C28.3205 23.8907 28.2583 23.9347 28.2007 23.9893C28.1431 24.0438 28.081 24.0878 28.0234 24.1409C27.9658 24.1939 27.9036 24.2394 27.846 24.2924C27.7884 24.3455 27.7263 24.3894 27.6687 24.444C27.6111 24.4986 27.5489 24.5425 27.4913 24.5956C27.4337 24.6487 27.3716 24.6926 27.314 24.7472C27.2564 24.8018 27.1942 24.8457 27.1366 24.8988C27.079 24.9518 27.0169 24.9973 26.9593 25.0504C26.9017 25.1034 26.8395 25.1474 26.7819 25.2019C26.7243 25.2565 26.6622 25.3005 26.6046 25.3535C26.547 25.4066 26.4848 25.4521 26.4272 25.5051C26.3696 25.5582 26.3075 25.6036 26.2499 25.6567C26.1923 25.7097 26.1301 25.7552 26.0725 25.8083C26.0149 25.8613 25.9528 25.9053 25.8952 25.9599C25.8376 26.0144 25.7754 26.0584 25.7178 26.1114C25.6602 26.1645 25.5981 26.21 25.5404 26.263C25.4828 26.3161 25.4207 26.3616 25.3631 26.4146C25.3055 26.4677 25.2433 26.5131 25.1857 26.5662C25.1281 26.6193 25.066 26.6632 25.0084 26.7178C24.9508 26.7724 24.8886 26.8163 24.831 26.8694C24.7734 26.9224 24.7113 26.9679 24.6537 27.0209C24.5961 27.074 24.5339 27.1195 24.4763 27.1725L24.4157 27.2226C24.3793 27.1907 24.3414 27.1604 24.3035 27.1301C24.2656 27.0998 24.1914 27.0346 24.1337 26.9891C24.0761 26.9436 24.0216 26.8921 23.964 26.8466C23.9098 26.7968 23.8532 26.7497 23.7942 26.7057C23.7396 26.6556 23.6835 26.6086 23.6244 26.5632C23.5653 26.5177 23.5138 26.4662 23.4562 26.4207C23.3986 26.3752 23.344 26.3252 23.2864 26.2797C23.2288 26.2342 23.1757 26.1827 23.1166 26.1372C23.0625 26.0873 23.0058 26.0403 22.9468 25.9962C22.8923 25.9462 22.8362 25.8992 22.7786 25.8538C22.721 25.8083 22.6664 25.7567 22.6088 25.7128C22.5512 25.6688 22.4966 25.6158 22.439 25.5703C22.3814 25.5248 22.3284 25.4733 22.2693 25.4278C22.2101 25.3823 22.1586 25.3308 22.0995 25.2868C22.0404 25.2429 21.9888 25.1898 21.9312 25.1443C21.8736 25.0989 21.8191 25.0473 21.7615 25.0034C21.7039 24.9594 21.6508 24.9064 21.5917 24.8609C21.5326 24.8154 21.481 24.7639 21.4219 24.7184C21.3628 24.6729 21.3113 24.6214 21.2521 24.5774C21.193 24.5335 21.1415 24.4804 21.0839 24.4349C21.0297 24.3851 20.9731 24.338 20.9141 24.294C20.8595 24.2439 20.8034 24.1969 20.7443 24.1515C20.6307 24.0581 20.5181 23.9636 20.4063 23.868C20.3517 23.818 20.2956 23.771 20.2365 23.7255C20.1824 23.6756 20.1257 23.6286 20.0667 23.5845C20.0122 23.5345 19.9561 23.4875 19.897 23.442C19.7814 23.3195 19.6672 23.1957 19.5544 23.0707C19.5003 23.0208 19.4436 22.9737 19.3846 22.9297C19.3305 22.8793 19.2738 22.8318 19.2148 22.7872C19.1603 22.7372 19.1042 22.6902 19.0451 22.6447C18.9913 22.5945 18.9346 22.5474 18.8753 22.5037C18.822 22.453 18.7658 22.4055 18.707 22.3613C18.6529 22.3114 18.5962 22.2643 18.5373 22.2203C18.4831 22.1699 18.4265 22.1224 18.3675 22.0778C18.3142 22.0276 18.258 21.9805 18.1992 21.9368C18.1451 21.8865 18.0884 21.8389 18.0295 21.7943C17.9762 21.7441 17.92 21.697 17.8612 21.6534C17.8071 21.6035 17.7504 21.5564 17.6914 21.5124C17.6381 21.4617 17.582 21.4141 17.5232 21.3699C17.469 21.32 17.4124 21.273 17.3534 21.2289C17.2999 21.1783 17.2432 21.1312 17.1836 21.0879C17.1303 21.0372 17.0742 20.9897 17.0154 20.9455C16.9615 20.8952 16.9049 20.8482 16.8456 20.8045C16.7923 20.7543 16.7361 20.7072 16.6773 20.6635C16.6239 20.6124 16.5672 20.5648 16.5076 20.521C16.4543 20.4708 16.3981 20.4237 16.3393 20.3801C16.2855 20.3298 16.2288 20.2827 16.1695 20.2391C16.1166 20.1879 16.0604 20.1403 16.0013 20.0966C15.9474 20.0464 15.8908 19.9993 15.8315 19.9556C15.7786 19.905 15.7224 19.8579 15.6632 19.8146C15.6098 19.7635 15.5531 19.7159 15.4935 19.6722C15.4402 19.6219 15.384 19.5749 15.3252 19.5312C15.2718 19.4805 15.2151 19.4334 15.1554 19.3902C15.1039 19.3402 15.0492 19.2937 14.9917 19.2508C14.9379 19.2005 14.8812 19.1534 14.8219 19.1098C14.7694 19.0587 14.7132 19.0116 14.6537 18.9688C14.6003 18.9176 14.5436 18.87 14.4839 18.8263C14.4308 18.7753 14.3741 18.7281 14.3141 18.6853C14.0296 18.405 13.6463 18.2477 13.2468 18.2473C12.8474 18.2468 12.4638 18.4033 12.1785 18.6829C11.8933 18.9626 11.7294 19.343 11.7219 19.7424C11.7145 20.1418 11.8643 20.5281 12.1389 20.8181C12.1806 20.8791 12.2267 20.9368 12.2768 20.9909C12.319 21.0515 12.3651 21.1092 12.4148 21.1637C12.4578 21.2235 12.5044 21.2807 12.5542 21.335C12.5959 21.396 12.642 21.4537 12.6922 21.5078C12.734 21.5682 12.7801 21.6254 12.8301 21.6791C12.8727 21.7393 12.9188 21.797 12.9681 21.8519C13.0104 21.9123 13.057 21.9696 13.1075 22.0232C13.1497 22.0838 13.1957 22.1415 13.2455 22.196C13.2876 22.2566 13.3337 22.3143 13.3834 22.3688C13.4265 22.4286 13.473 22.4858 13.5229 22.5401C13.565 22.6007 13.6111 22.6584 13.6608 22.7129C13.7009 22.7747 13.7455 22.8335 13.7942 22.8888C13.8861 23.0045 13.9785 23.1197 14.0716 23.2344C14.1141 23.2942 14.1602 23.3514 14.2095 23.4057C14.2522 23.4659 14.2982 23.5236 14.3475 23.5785C14.3914 23.6376 14.4369 23.6952 14.4854 23.7498C14.5286 23.81 14.5751 23.8677 14.6249 23.9226C14.6674 23.9824 14.7135 24.0396 14.7628 24.0939C14.8054 24.1537 14.8514 24.2109 14.9008 24.2652C14.9425 24.3255 14.9886 24.3828 15.0387 24.4364C15.0808 24.497 15.1269 24.5547 15.1766 24.6092C15.2196 24.6687 15.2657 24.7259 15.3146 24.7805C15.3576 24.84 15.4036 24.8971 15.4525 24.9518C15.4951 25.012 15.5412 25.0697 15.5905 25.1246C15.6344 25.1838 15.6799 25.2414 15.7284 25.2959C15.7769 25.3505 15.8178 25.4126 15.8664 25.4672C15.9149 25.5218 15.9558 25.5839 16.0043 25.64C16.0528 25.6961 16.0937 25.7567 16.1422 25.8113C16.1907 25.8659 16.2317 25.928 16.2802 25.9826C16.3237 26.0425 16.3702 26.1002 16.4196 26.1554C16.4622 26.2152 16.5082 26.2724 16.5576 26.3267C16.6006 26.3861 16.6466 26.4433 16.6955 26.498C16.7385 26.5574 16.7846 26.6146 16.8335 26.6693C16.8784 26.7255 16.9265 26.7791 16.9775 26.83C17.0205 26.8894 17.0665 26.9466 17.1154 27.0012C17.1594 27.0604 17.2048 27.118 17.2533 27.1725C17.3019 27.2271 17.3428 27.2893 17.3913 27.3453C17.4398 27.4014 17.4807 27.4621 17.5292 27.5166C17.5777 27.5712 17.6187 27.6333 17.6672 27.6879C17.7157 27.7425 17.7566 27.8046 17.8051 27.8607C17.8536 27.9168 17.8946 27.9774 17.9431 28.032C17.9916 28.0866 18.034 28.1487 18.0825 28.2033C18.131 28.2579 18.1719 28.32 18.2205 28.3761C18.269 28.4322 18.3099 28.4913 18.3584 28.5474C18.4014 28.6068 18.4474 28.664 18.4963 28.7187C18.5393 28.7781 18.5854 28.8353 18.6343 28.89C18.6782 28.9506 18.7237 29.0067 18.7722 29.0628C18.8207 29.1189 18.8617 29.1795 18.9102 29.2341C18.9587 29.2886 18.9996 29.3508 19.0481 29.4054C19.0966 29.4599 19.1375 29.5221 19.186 29.5782C19.2346 29.6343 19.2755 29.6934 19.324 29.7495C19.3725 29.8055 19.4149 29.8662 19.4619 29.9208C19.5089 29.9753 19.5529 30.0375 19.5999 30.0936C19.6469 30.1496 19.6908 30.2088 19.7393 30.2648C19.7823 30.3243 19.8284 30.3815 19.8773 30.4361C19.9197 30.4953 19.9667 30.5529 20.0152 30.6089C20.0637 30.665 20.1046 30.7241 20.1532 30.7802C20.2017 30.8363 20.2426 30.897 20.2911 30.9515C20.3396 31.0061 20.3805 31.0682 20.429 31.1228C20.4775 31.1774 20.5185 31.2395 20.567 31.2956C20.6155 31.3517 20.6564 31.4108 20.7049 31.4669C20.7534 31.523 20.7944 31.5836 20.8429 31.6382C20.8914 31.6928 20.9338 31.7549 20.9808 31.811C21.0278 31.8671 21.0718 31.9262 21.1187 31.9823C21.1657 32.0384 21.2097 32.099 21.2567 32.1536C21.3037 32.2082 21.3476 32.2703 21.3946 32.3264C21.4416 32.3825 21.4856 32.4416 21.5341 32.4977C21.5771 32.5571 21.6231 32.6143 21.672 32.669C21.716 32.7281 21.7615 32.7857 21.81 32.8418C21.8585 32.8979 21.8994 32.957 21.9479 33.0131L21.9934 33.0722V33.0828L22.0752 33.1813C22.081 33.1891 22.0876 33.1962 22.0949 33.2025C22.1192 33.2313 22.145 33.2601 22.1707 33.2874L22.1995 33.3178C22.2223 33.342 22.2465 33.3663 22.2708 33.389C22.2832 33.4024 22.2963 33.415 22.3102 33.4269C22.3314 33.4481 22.3542 33.4678 22.3769 33.4875L22.4239 33.5285L22.4891 33.583L22.5406 33.6224L22.6088 33.674L22.6588 33.7104L22.7346 33.7604L22.7816 33.7907C22.8104 33.8089 22.8392 33.8271 22.8695 33.8437L22.9059 33.865L23.0105 33.9211L23.0332 33.9332C23.0742 33.9544 23.1166 33.9741 23.1591 33.9923C23.4477 34.1209 23.7545 34.2042 24.0686 34.2394L24.1974 34.2515H24.2353H24.3308H24.4748H24.5582H24.6309H24.7098L24.7931 34.2424L24.8568 34.2333L24.9569 34.2182H25.0008L25.1175 34.1924H25.1403L25.2737 34.1575C25.6535 34.049 26.0088 33.8678 26.3196 33.624L26.3302 33.6164C26.3635 33.5911 26.3969 33.5638 26.4302 33.5345L26.4515 33.5163L26.5348 33.4405L26.5667 33.4102L26.6379 33.339L26.6743 33.3011L26.7364 33.2329L26.7607 33.2056C26.8168 33.151 26.8698 33.0934 26.9199 33.0358C26.9699 32.9782 27.029 32.9236 27.0714 32.866C27.1139 32.8084 27.1806 32.7539 27.2306 32.6963C27.2806 32.6387 27.3398 32.5841 27.3898 32.5265C27.4398 32.4689 27.4989 32.4143 27.5414 32.3567C27.5838 32.2991 27.6505 32.2445 27.7005 32.1869C27.7505 32.1293 27.8097 32.0748 27.8521 32.0172C27.8945 31.9596 27.9612 31.905 28.0113 31.8459C28.0613 31.7868 28.1204 31.7352 28.1704 31.6761C28.2205 31.617 28.2796 31.5654 28.322 31.5063C28.3645 31.4472 28.4312 31.3957 28.4812 31.3365C28.5312 31.2774 28.5903 31.2259 28.6328 31.1668C28.6752 31.1077 28.7419 31.0561 28.7919 30.997C28.8419 30.9379 28.9011 30.8863 28.9511 30.8272C29.0011 30.7681 29.0602 30.7166 29.1027 30.6575C29.1451 30.5983 29.2118 30.5468 29.2618 30.4877C29.3119 30.4286 29.371 30.377 29.4134 30.3179C29.4559 30.2588 29.5226 30.2072 29.5726 30.1481C29.6226 30.089 29.6817 30.0375 29.7317 29.9784C29.7818 29.9192 29.8409 29.8677 29.8833 29.8086C29.9258 29.7495 29.9925 29.6979 30.0425 29.6388C30.0925 29.5797 30.1516 29.5281 30.1941 29.469C30.2365 29.4099 30.3032 29.3584 30.3532 29.2993C30.4033 29.2401 30.4624 29.1886 30.5124 29.1295C30.5624 29.0704 30.6215 29.0188 30.664 28.9597C30.7064 28.9006 30.7731 28.8491 30.8232 28.7899C30.8732 28.7308 30.9323 28.6793 30.9747 28.6202C31.0172 28.561 31.0839 28.5095 31.1339 28.4504C31.1839 28.3913 31.243 28.3397 31.2931 28.2806C31.3431 28.2215 31.4022 28.17 31.4446 28.1108C31.4871 28.0517 31.5538 28.0002 31.6038 27.9411C31.6538 27.8819 31.713 27.8304 31.7554 27.7713C31.7978 27.7122 31.8645 27.6606 31.9146 27.6015C31.9646 27.5424 32.0237 27.4909 32.0737 27.4317C32.1237 27.3726 32.1829 27.3211 32.2253 27.262C32.2677 27.2029 32.3344 27.1513 32.3845 27.0922C32.4345 27.0331 32.4936 26.9815 32.5361 26.9224C32.5785 26.8633 32.6452 26.8118 32.6952 26.7526C32.7452 26.6935 32.8044 26.642 32.8544 26.5829C32.9044 26.5238 32.9635 26.4722 33.006 26.4131C33.0484 26.354 33.1151 26.3024 33.1651 26.2433C33.2151 26.1842 33.2743 26.1327 33.3167 26.0735C33.3592 26.0144 33.4243 25.9629 33.4759 25.9038C33.5274 25.8447 33.5835 25.7931 33.635 25.734C33.6866 25.6749 33.7442 25.6233 33.7866 25.5642C33.8291 25.5051 33.8942 25.4536 33.9458 25.3945C33.9973 25.3353 34.0534 25.2838 34.0974 25.2247C34.1413 25.1656 34.205 25.114 34.2565 25.0549C34.3081 24.9958 34.3642 24.9442 34.4157 24.8851C34.4672 24.826 34.5233 24.7745 34.5673 24.7138C34.6112 24.6532 34.6749 24.6047 34.7264 24.5441C34.778 24.4834 34.8341 24.4349 34.878 24.3743C34.922 24.3137 34.9857 24.2652 35.0372 24.2045C35.0887 24.1439 35.1448 24.0954 35.1964 24.0347C35.2479 23.9741 35.304 23.9256 35.3479 23.865C35.3919 23.8043 35.4556 23.7558 35.5071 23.6952C35.5586 23.6346 35.6147 23.5845 35.6587 23.5254C35.7026 23.4663 35.7663 23.4148 35.8178 23.3556C35.8694 23.2965 35.9255 23.245 35.977 23.1859C36.0285 23.1268 36.0846 23.0752 36.1286 23.0161C36.1726 22.957 36.2362 22.9054 36.2878 22.8463C36.3393 22.7872 36.3954 22.7357 36.4393 22.6766C36.4833 22.6174 36.547 22.5659 36.5985 22.5068C36.65 22.4477 36.7061 22.3961 36.7577 22.337C36.8092 22.2779 36.8653 22.2263 36.9093 22.1672C36.9532 22.1081 37.0169 22.0566 37.0684 21.9975C37.12 21.9383 37.176 21.8868 37.22 21.8277C37.264 21.7686 37.3276 21.717 37.3716 21.6579L37.3724 21.6632C37.5313 21.4937 37.5313 21.4937 37.6902 21.3243L37.6883 21.3214C37.8487 21.1503 37.8487 21.1503 38.0091 20.9792L38.0072 20.974C38.1661 20.8045 38.1661 20.8045 38.3249 20.635L38.3293 20.64C38.4882 20.4705 38.4882 20.4705 38.6471 20.3011C38.701 20.2467 38.754 20.1891 38.8056 20.1299C38.9122 20.0167 39.0183 19.903 39.1239 19.7889C39.1804 19.7356 39.2336 19.6789 39.2831 19.6191L39.285 19.6168C39.4439 19.4473 39.4439 19.4473 39.6027 19.2779L39.6014 19.2796C39.6575 19.2259 39.7107 19.1693 39.7605 19.1098C39.8167 19.0557 39.8698 18.9985 39.9197 18.9385C39.977 18.886 40.0302 18.8293 40.0789 18.7687C40.1363 18.7159 40.1899 18.6591 40.2396 18.5989L40.2383 18.6007C40.3972 18.4313 40.3972 18.4313 40.5561 18.2618L40.5579 18.2594C40.6144 18.2056 40.6676 18.1484 40.717 18.0881C40.7735 18.0349 40.8267 17.9782 40.8762 17.9183C40.9327 17.8651 40.9859 17.8084 41.0354 17.7486C41.0893 17.6951 41.1399 17.6384 41.187 17.5788C41.2439 17.5259 41.2971 17.4692 41.3461 17.409C41.4031 17.3558 41.4568 17.2991 41.5068 17.2392C41.5633 17.1855 41.6165 17.1283 41.666 17.0679C41.7225 17.0147 41.7756 16.958 41.8251 16.8982C41.8816 16.8449 41.9348 16.7882 41.9843 16.7284C42.0382 16.6749 42.0888 16.6182 42.1359 16.5586C42.192 16.505 42.2451 16.4483 42.295 16.3888C42.3523 16.3359 42.4056 16.2786 42.4542 16.2176C42.5118 16.1655 42.5651 16.1087 42.6134 16.0478C42.6707 15.9949 42.7244 15.9382 42.774 15.878C42.8279 15.8245 42.8786 15.7678 42.9256 15.7082C42.9821 15.655 43.0353 15.5983 43.0848 15.5385C43.1409 15.4848 43.1941 15.4282 43.2439 15.3687C43.3005 15.3149 43.3536 15.2577 43.4031 15.1974C43.5467 15.159 43.6833 15.0981 43.8078 15.017C43.8622 14.9667 43.9129 14.9125 43.9594 14.8548C44.0167 14.8023 44.0699 14.7456 44.1186 14.685C44.1759 14.6326 44.2291 14.5758 44.2778 14.5153C44.3352 14.4619 44.3888 14.4047 44.4384 14.344C44.4953 14.2911 44.5485 14.2344 44.5976 14.1742C44.6545 14.1213 44.7076 14.0646 44.7568 14.0044C44.8111 13.9513 44.8617 13.8946 44.9083 13.8347C44.9656 13.7822 45.0188 13.7254 45.0675 13.6649C45.1295 13.6118 45.1868 13.5535 45.2388 13.4906C45.4465 13.3 45.598 13.056 45.6766 12.7852C45.7552 12.5145 45.758 12.2274 45.6847 11.9551C45.6113 11.6829 45.4647 11.4361 45.2607 11.2414C45.0567 11.0468 44.8032 10.9119 44.5279 10.8515V10.8469Z" fill="#1BA0E2"/>
<path d="M21.5251 22.7828C21.5842 22.8283 21.6403 22.8753 21.6948 22.9238C21.7494 22.9723 21.81 23.0178 21.8646 23.0663C21.9192 23.1148 21.9798 23.1588 22.0344 23.2073L22.2042 23.3497C22.2618 23.3952 22.3178 23.4437 22.3739 23.4922C22.43 23.5407 22.4876 23.5847 22.5422 23.6332C22.5968 23.6817 22.6574 23.7272 22.712 23.7757C22.7665 23.8242 22.8272 23.8697 22.8817 23.9167C22.9363 23.9637 22.9969 24.0107 23.0515 24.0592C23.1061 24.1077 23.1667 24.1531 23.2198 24.2016C23.2728 24.2502 23.3365 24.2956 23.3895 24.3426C23.4426 24.3896 23.5047 24.4366 23.5593 24.4851C23.6139 24.5336 23.6745 24.5791 23.7291 24.6276C23.7837 24.6761 23.8443 24.7216 23.8989 24.7686C23.9534 24.8156 24.0141 24.8626 24.0686 24.9111C24.1232 24.9596 24.1838 25.005 24.2384 25.0536C24.293 25.1021 24.3506 25.1445 24.4036 25.1915C24.4612 25.14 24.5188 25.093 24.5749 25.0399C24.631 24.9869 24.6932 24.9368 24.7523 24.8883C24.8114 24.8398 24.8705 24.7852 24.9296 24.7367C24.9888 24.6882 25.0479 24.6337 25.107 24.5852C25.1661 24.5366 25.2252 24.4821 25.2843 24.4336C25.3435 24.3851 25.4026 24.3305 25.4617 24.282C25.5208 24.2335 25.5799 24.1789 25.6391 24.1304C25.6982 24.0819 25.7573 24.0273 25.8164 23.9788C25.8755 23.9303 25.9346 23.8757 25.9938 23.8272C26.0529 23.7787 26.112 23.7242 26.1711 23.6757C26.2302 23.6271 26.2893 23.5726 26.3485 23.5241C26.4076 23.4756 26.4667 23.421 26.5258 23.3725C26.5849 23.324 26.6441 23.2694 26.7032 23.2209C26.7623 23.1724 26.8214 23.1178 26.8805 23.0693C26.9396 23.0208 26.9988 22.9662 27.0579 22.9177C27.117 22.8692 27.1746 22.8147 27.2352 22.7661C27.2959 22.7176 27.3519 22.6631 27.4126 22.6146L27.4217 22.6055H21.3462L21.3598 22.6176C21.419 22.6858 21.475 22.7373 21.5251 22.7828Z" fill="#1BA0E2"/>
<path d="M31.1401 19.4741C31.1977 19.4226 31.2568 19.372 31.3174 19.3225C31.375 19.2695 31.4341 19.2194 31.4948 19.1709C31.5554 19.1224 31.6115 19.0694 31.6721 19.0193C31.7328 18.9693 31.7889 18.9178 31.8495 18.8678C31.9101 18.8177 31.9662 18.7662 32.0268 18.7162C32.0875 18.6661 32.1436 18.6146 32.2042 18.5646C32.2648 18.5146 32.3209 18.463 32.3815 18.413C32.4422 18.363 32.4983 18.3114 32.5589 18.2614C32.6195 18.2114 32.6741 18.1599 32.7363 18.1098C32.7984 18.0598 32.8515 18.0068 32.9136 17.9582C32.9758 17.9097 33.0288 17.8567 33.091 17.8067C33.1531 17.7566 33.2062 17.7051 33.2683 17.6551C33.3305 17.6051 33.3835 17.552 33.4457 17.5035C33.5078 17.455 33.5609 17.4019 33.623 17.3519C33.6852 17.3019 33.7382 17.2504 33.8004 17.2003C33.8625 17.1503 33.9171 17.0988 33.9777 17.0487C34.0384 16.9987 34.0944 16.9457 34.1551 16.8972C34.2157 16.8487 34.2718 16.7956 34.3324 16.7456C34.3931 16.6956 34.4492 16.6425 34.5113 16.594C34.5735 16.5455 34.6265 16.4924 34.6887 16.4424C34.7508 16.3924 34.8039 16.3393 34.866 16.2908C34.9282 16.2423 34.9827 16.1893 35.0434 16.1392C35.104 16.0892 35.1601 16.0362 35.2207 15.9877C35.2814 15.9391 35.3374 15.8861 35.3996 15.8361C35.4617 15.786 35.4996 15.7482 35.5512 15.7057V15.4617C35.5512 14.44 35.5694 13.4153 35.5512 12.3936V12.3496C35.5512 11.1097 34.4613 9.92429 33.1804 9.97886C31.8995 10.0334 30.8081 11.0202 30.8081 12.3496V19.7515L30.9597 19.6211C31.0193 19.5767 31.0794 19.5276 31.1401 19.4741Z" fill="#1BA0E2"/>
<path d="M35.3356 26.2237C35.2841 26.2828 35.2311 26.3389 35.1765 26.3934C35.1219 26.448 35.0719 26.5086 35.0173 26.5632C34.9627 26.6178 34.9127 26.6784 34.8657 26.733C34.8187 26.7876 34.7611 26.8482 34.7066 26.9028C34.652 26.9573 34.602 27.018 34.555 27.0725C34.508 27.1271 34.4504 27.1877 34.3958 27.2423C34.3413 27.2969 34.2912 27.3575 34.2367 27.4121C34.1821 27.4667 34.1321 27.5273 34.0851 27.5819C34.0381 27.6364 33.9805 27.6971 33.9259 27.7516C33.8713 27.8062 33.8213 27.8668 33.7743 27.9214C33.7273 27.976 33.6697 28.0366 33.6152 28.0912C33.5606 28.1458 33.5106 28.2064 33.456 28.261C33.4014 28.3155 33.3514 28.3762 33.3044 28.4307C33.2574 28.4853 33.1998 28.5459 33.1453 28.6005C33.0907 28.6551 33.0422 28.7157 32.9937 28.7703C32.9452 28.8248 32.8906 28.8855 32.8345 28.94C32.7784 28.9946 32.7314 29.0553 32.6753 29.1098C32.6193 29.1644 32.5723 29.225 32.5238 29.2796C32.4753 29.3342 32.4207 29.3933 32.3646 29.4494C32.3085 29.5055 32.2615 29.5631 32.213 29.6191C32.1645 29.6752 32.1099 29.7328 32.0539 29.7889C31.9978 29.845 31.9508 29.9026 31.8947 29.9587C31.8386 30.0148 31.7916 30.0724 31.7431 30.1285C31.6946 30.1846 31.64 30.2422 31.5839 30.2982C31.5279 30.3543 31.4809 30.4119 31.4324 30.468C31.3838 30.5241 31.3293 30.5817 31.2732 30.6378C31.2171 30.6939 31.1701 30.7515 31.1216 30.8076C31.0731 30.8637 31.017 30.9213 30.9609 30.9773L30.8912 31.0546V34.529C30.8912 35.5506 30.8745 36.5753 30.8912 37.597C30.892 37.6117 30.892 37.6263 30.8912 37.641C30.8912 38.8809 31.9826 40.0663 33.2635 40.0117C34.5444 39.9572 35.6343 38.9704 35.6343 37.641V25.9978C35.6146 26.019 35.5964 26.0402 35.5767 26.06C35.4433 26.1191 35.3902 26.1752 35.3356 26.2237Z" fill="#1BA0E2"/>
<path d="M15.4389 17.6839C15.4965 17.7294 15.5541 17.7763 15.6087 17.8249C15.6633 17.8734 15.7224 17.9173 15.777 17.9658C15.8315 18.0143 15.8922 18.0583 15.9467 18.1083C16.0013 18.1583 16.0604 18.2008 16.115 18.2493C16.1696 18.2978 16.2287 18.3418 16.2848 18.3903C16.3409 18.4388 16.3985 18.4827 16.453 18.5328C16.5076 18.5828 16.5667 18.6252 16.6228 18.6737C16.6789 18.7222 16.7365 18.7662 16.7911 18.8147C16.8456 18.8632 16.9048 18.9072 16.9593 18.9572C17.0139 19.0072 17.0745 19.0497 17.1291 19.0982C17.1837 19.1467 17.2428 19.1906 17.2989 19.2391C17.355 19.2876 17.4126 19.3316 17.4671 19.3816C17.5217 19.4316 17.5808 19.4741 17.6369 19.5226C17.693 19.5711 17.7506 19.6151 17.8052 19.6636C17.8597 19.7121 17.9189 19.756 17.9734 19.8061C17.9992 19.8258 18.0234 19.847 18.0477 19.8682V15.4617C18.0477 14.44 18.0659 13.4153 18.0477 12.3936V12.3496C18.0477 11.1097 16.9578 9.92429 15.6769 9.97886C14.396 10.0334 13.3062 11.0233 13.3062 12.3527V16.7683C14.0355 16.7774 14.7364 17.0529 15.2767 17.5429C15.3283 17.5838 15.3844 17.6354 15.4389 17.6839Z" fill="#1BA0E2"/>
<path d="M17.8868 30.3426C17.8398 30.285 17.7928 30.2274 17.7489 30.1698C17.7049 30.1122 17.6549 30.0561 17.6109 29.9985C17.567 29.9409 17.5169 29.8848 17.473 29.8272C17.429 29.7696 17.379 29.7135 17.335 29.6544C17.2911 29.5953 17.2411 29.5407 17.1971 29.4831C17.1531 29.4255 17.1031 29.3694 17.0592 29.3118C17.0152 29.2542 16.9652 29.1981 16.9212 29.1405C16.8773 29.0829 16.8272 29.0268 16.7833 28.9677C16.7393 28.9086 16.6893 28.854 16.6453 28.7964C16.6014 28.7388 16.5514 28.6827 16.5074 28.6251C16.4634 28.5675 16.4134 28.5114 16.3694 28.4538C16.3255 28.3962 16.2755 28.3402 16.2315 28.281C16.1875 28.2219 16.1375 28.1689 16.0936 28.1097C16.0496 28.0506 15.9996 27.9961 15.9541 27.9385C15.9086 27.8808 15.8616 27.8248 15.8162 27.7672C15.7707 27.7096 15.7222 27.6535 15.6782 27.5944C15.6343 27.5352 15.5842 27.4822 15.5403 27.4231C15.4963 27.3639 15.4463 27.3094 15.4023 27.2518C15.3584 27.1942 15.3084 27.1381 15.2644 27.0805C15.2204 27.0229 15.1704 26.9668 15.1265 26.9077C15.0825 26.8486 15.0325 26.7955 14.9885 26.7364C14.9446 26.6773 14.8945 26.6242 14.8506 26.5651C14.8066 26.506 14.7566 26.4514 14.7126 26.3923C14.6687 26.3332 14.6187 26.2801 14.5747 26.221C14.5307 26.1619 14.4807 26.1088 14.4368 26.0497C14.3928 25.9906 14.3428 25.9375 14.2988 25.8784C14.2549 25.8193 14.2048 25.7647 14.1609 25.7056C14.1169 25.6465 14.0669 25.5934 14.0229 25.5343C13.979 25.4752 13.9289 25.4222 13.885 25.363C13.841 25.3039 13.791 25.2509 13.7455 25.1917C13.7001 25.1326 13.6531 25.0781 13.6076 25.0189C13.5621 24.9598 13.5151 24.9068 13.4696 24.8477C13.4242 24.7885 13.3772 24.7355 13.3317 24.6764L13.3059 24.6445V24.8416C13.3029 24.8946 13.3029 24.9477 13.3059 25.0008V34.5354C13.3059 35.5571 13.2877 36.5818 13.3059 37.6035V37.6474C13.3059 38.8874 14.3958 40.0728 15.6767 40.0182C16.9576 39.9636 18.0475 38.9768 18.0475 37.6474V30.5427L18.0247 30.5139L17.8868 30.3426Z" fill="#1BA0E2"/>
</g>
<defs>
<clipPath id="clip0_146_472">
<rect width="50" height="50" fill="white"/>
</clipPath>
</defs>
</svg>
