<svg width="631" height="175" viewBox="0 0 631 175" fill="none" xmlns="http://www.w3.org/2000/svg">
<path d="M269.964 49.6292C264.878 49.6292 260.833 53.7903 260.833 58.7606V84.3054H235.866V58.7606C235.866 53.7903 231.82 49.6292 226.734 49.6292C221.764 49.6292 217.603 53.7903 217.603 58.7606V126.032C217.603 131.003 221.764 135.164 226.734 135.164C231.82 135.164 235.866 131.003 235.866 126.032V100.488H260.833V126.032C260.833 131.003 264.878 135.164 269.964 135.164C274.934 135.164 279.096 131.003 279.096 126.032V58.7606C279.096 53.7903 274.934 49.6292 269.964 49.6292ZM388.232 122.218L358.295 55.293C357.254 53.0968 355.636 51.363 353.44 50.4383C351.128 49.5136 348.238 49.5136 345.927 50.4383C343.846 51.363 341.997 53.0968 341.072 55.293L311.135 122.218C309.054 126.842 311.135 132.39 315.758 134.355C319.804 136.089 325.468 134.933 327.895 129.616L332.056 120.484H367.426L371.471 129.616C373.899 135.048 379.794 136.32 383.608 134.355C388.116 132.043 390.312 126.842 388.232 122.218ZM340.378 102.106L349.741 81.0689L359.104 102.106H340.378ZM449.504 49.6292H430.663C425.577 49.6292 421.416 53.7903 421.416 58.8762V125.917C421.416 130.887 425.346 135.164 430.316 135.164H449.504C473.084 135.164 492.271 115.976 492.271 92.3965C492.271 68.8167 473.084 49.6292 449.504 49.6292ZM449.504 116.67H439.91V68.1232H449.504C462.796 68.1232 473.662 78.9884 473.662 92.3965C473.662 105.805 462.796 116.67 449.504 116.67ZM532.567 135.164C527.481 135.164 523.435 131.003 523.435 126.032V58.7606C523.435 53.7903 527.481 49.6292 532.567 49.6292C537.653 49.6292 541.698 53.7903 541.698 58.7606V126.032C541.698 131.003 537.653 135.164 532.567 135.164ZM627.252 121.178L614.422 99.4473C622.744 95.055 628.292 86.2704 628.292 76.0987C628.292 61.5347 616.502 49.6292 601.823 49.6292H583.791C578.821 49.6292 574.66 53.7903 574.66 58.8762V125.917C574.66 131.003 578.821 135.164 583.791 135.164C588.992 135.164 593.154 131.003 593.154 125.917V102.684H594.887L611.301 130.656C614.19 135.511 619.854 136.204 623.9 133.777C628.292 131.118 629.795 125.686 627.252 121.178ZM609.914 76.0987C609.914 80.7222 606.33 84.1898 601.823 84.1898H593.154V68.1232H601.823C606.33 68.1232 609.914 71.7064 609.914 76.0987Z" fill="#1BA0E2"/>
<g clip-path="url(#clip0_146_354)">
<path d="M174.867 127.159V47.7067C174.867 21.3586 153.508 -0.000732422 127.16 -0.000732422L47.7075 -0.000732422C21.3594 -0.000732422 6.10352e-05 21.3586 6.10352e-05 47.7067V127.159C6.10352e-05 153.507 21.3594 174.866 47.7075 174.866H127.16C153.508 174.866 174.867 153.507 174.867 127.159Z" fill="#1BA0E2"/>
<path d="M155.729 37.9355C154.849 37.7417 153.936 37.7711 153.071 38.0212C152.206 38.2712 151.417 38.7338 150.777 39.3669C150.558 39.5292 150.351 39.7063 150.157 39.897C149.936 40.0562 149.728 40.2336 149.537 40.4271C149.316 40.5894 149.107 40.7665 148.911 40.9573C148.692 41.1192 148.485 41.2964 148.291 41.4874C148.073 41.6511 147.866 41.8281 147.67 42.0176C147.452 42.1795 147.244 42.3567 147.05 42.5477C146.832 42.71 146.624 42.8871 146.43 43.0779C146.209 43.2372 146.002 43.4145 145.81 43.608C145.588 43.7685 145.379 43.9458 145.184 44.1381C144.965 44.3002 144.758 44.4773 144.564 44.6683C144.345 44.8302 144.138 45.0074 143.944 45.1984C143.725 45.3604 143.517 45.5376 143.323 45.7286C143.104 45.8905 142.897 46.0676 142.703 46.2587C142.484 46.421 142.277 46.5981 142.083 46.7888C141.861 46.9494 141.652 47.1266 141.457 47.319C141.24 47.4826 141.032 47.6597 140.837 47.8491C140.618 48.0111 140.411 48.1882 140.217 48.3793C139.999 48.5429 139.792 48.72 139.596 48.9094C139.377 49.0713 139.17 49.2485 138.976 49.4395C138.757 49.6031 138.548 49.7802 138.351 49.9697C138.132 50.1316 137.924 50.3088 137.73 50.4998C137.319 50.8553 136.905 51.2087 136.49 51.5601C136.078 51.9156 135.665 52.269 135.249 52.6204C135.03 52.784 134.821 52.9611 134.624 53.1505C134.407 53.3157 134.2 53.4926 134.003 53.6807C133.786 53.8443 133.579 54.0214 133.383 54.2108C133.167 54.3759 132.96 54.5529 132.763 54.741C132.545 54.9046 132.338 55.0817 132.143 55.2711C131.926 55.4362 131.719 55.6132 131.522 55.8012C131.303 55.9648 131.094 56.1419 130.897 56.3314C130.685 56.4957 130.473 56.6707 130.277 56.8615C130.059 57.0252 129.852 57.2022 129.656 57.3917C129.44 57.5568 129.233 57.7338 129.036 57.9218C128.818 58.0855 128.611 58.2625 128.416 58.452C128.198 58.6163 127.992 58.7912 127.79 58.9821C127.574 59.1471 127.367 59.3241 127.17 59.5122C126.958 59.6766 126.746 59.8515 126.55 60.0424C126.332 60.206 126.125 60.3831 125.929 60.5725C125.514 60.9239 125.101 61.2773 124.689 61.6328C124.471 61.7971 124.265 61.9721 124.063 62.1629C123.862 62.3538 123.639 62.5075 123.443 62.6931C123.247 62.8786 123.019 63.0324 122.823 63.2232C122.627 63.4141 122.399 63.5678 122.202 63.7534C121.985 63.917 121.778 64.0941 121.582 64.2835L121.576 64.2845C120.963 64.8083 120.963 64.8083 120.35 65.3322C120.124 65.5134 119.918 65.6884 119.721 65.8739C119.505 66.0391 119.298 66.216 119.101 66.4041C118.884 66.5677 118.676 66.7448 118.481 66.9342L118.489 66.917C117.865 67.4508 117.865 67.4508 117.24 67.9845L117.24 67.9945C117.024 68.1597 116.817 68.3367 116.62 68.5246C116.403 68.689 116.196 68.8639 115.995 69.0548C115.793 69.2456 115.576 69.3941 115.374 69.5849C115.173 69.7758 114.955 69.9242 114.754 70.1151C114.553 70.3059 114.335 70.4543 114.134 70.6452C113.932 70.836 113.715 70.9898 113.513 71.1753C113.312 71.3609 113.095 71.5146 112.893 71.7055C112.692 71.8963 112.474 72.0448 112.273 72.2356C112.071 72.4265 111.854 72.5802 111.653 72.7658C111.451 72.9513 111.234 73.105 111.032 73.2959C110.831 73.4868 110.614 73.6405 110.412 73.826C110.211 74.0116 109.993 74.1653 109.792 74.3562C109.59 74.547 109.373 74.6955 109.172 74.8863C108.97 75.0772 108.753 75.2309 108.551 75.4165C108.35 75.602 108.133 75.7558 107.931 75.9466C107.73 76.1375 107.512 76.2912 107.311 76.4767C107.109 76.6623 106.892 76.816 106.691 77.0069C106.489 77.1977 106.272 77.3462 106.07 77.537C105.869 77.7279 105.651 77.8816 105.45 78.0672C105.249 78.2527 105.031 78.4065 104.83 78.5973C104.628 78.7882 104.411 78.9419 104.209 79.1275C104.008 79.313 103.791 79.472 103.589 79.6576C103.388 79.8431 103.17 79.9969 102.969 80.1877C102.767 80.3786 102.55 80.5323 102.349 80.7179C102.147 80.9034 101.93 81.0572 101.728 81.248C101.527 81.4389 101.31 81.5926 101.108 81.7782C100.907 81.9637 100.689 82.1228 100.488 82.3083C100.286 82.4939 100.069 82.6476 99.8676 82.8384C99.6662 83.0293 99.4488 83.183 99.2474 83.3686C99.0459 83.5541 98.8285 83.7079 98.6271 83.8987C98.4256 84.0896 98.2083 84.2433 98.0068 84.4289C97.8054 84.6144 97.588 84.7735 97.3866 84.959C97.1851 85.1446 96.9678 85.2983 96.7663 85.4891C96.5648 85.68 96.3475 85.8337 96.146 86.0193C95.9446 86.2048 95.7272 86.3586 95.5258 86.5494C95.3243 86.7403 95.107 86.894 94.9055 87.0796C94.7041 87.2651 94.4867 87.4242 94.2852 87.6097C94.0838 87.7953 93.8664 87.949 93.665 88.1399C93.4635 88.3307 93.2462 88.4844 93.0447 88.67C92.8433 88.8555 92.6259 89.0146 92.4244 89.2001C92.223 89.3857 92.0056 89.5447 91.8042 89.7303C91.6027 89.9158 91.3854 90.0749 91.1839 90.2604C90.9825 90.446 90.7651 90.5997 90.5636 90.7906C90.3622 90.9814 90.1448 91.1352 89.9434 91.3207C89.7419 91.5063 89.5246 91.6653 89.3231 91.8508C89.1217 92.0364 88.9043 92.1954 88.7029 92.381C88.5014 92.5665 88.284 92.7256 88.0826 92.9111C87.8811 93.0967 87.6638 93.2504 87.4623 93.4413C87.2609 93.6321 87.0435 93.7859 86.8421 93.9714C86.6406 94.157 86.4232 94.316 86.2218 94.5015C86.0203 94.6871 85.803 94.8461 85.6015 95.0317L85.3895 95.2066C85.2622 95.0953 85.1297 94.9893 84.9972 94.8833C84.8646 94.7772 84.6049 94.5493 84.4034 94.3902C84.202 94.2312 84.0111 94.0509 83.8096 93.8919C83.6203 93.7175 83.4221 93.5529 83.2159 93.3989C83.025 93.2239 82.8289 93.0596 82.6221 92.9005C82.4154 92.7415 82.2351 92.5612 82.0337 92.4022C81.8322 92.2432 81.6414 92.0682 81.4399 91.9092C81.2385 91.7501 81.0529 91.5699 80.8462 91.4108C80.6568 91.2364 80.4586 91.0719 80.2524 90.9178C80.0616 90.7429 79.8654 90.5785 79.6639 90.4195C79.4625 90.2604 79.2716 90.0802 79.0702 89.9264C78.8687 89.7727 78.6779 89.5871 78.4764 89.4281C78.275 89.2691 78.0894 89.0888 77.8827 88.9298C77.6759 88.7707 77.4957 88.5905 77.2889 88.4367C77.0821 88.283 76.9019 88.0975 76.7004 87.9384C76.499 87.7794 76.3081 87.5991 76.1067 87.4454C75.9052 87.2916 75.7197 87.1061 75.5129 86.947C75.3062 86.788 75.1259 86.6078 74.9192 86.4487C74.7124 86.2897 74.5322 86.1094 74.3254 85.9557C74.1187 85.8019 73.9384 85.6164 73.737 85.4573C73.5476 85.2829 73.3494 85.1184 73.1432 84.9643C72.9524 84.7894 72.7562 84.625 72.5494 84.466C72.1522 84.1393 71.7581 83.8089 71.3672 83.4746C71.1764 83.2997 70.9802 83.1353 70.7735 82.9763C70.5841 82.8019 70.386 82.6373 70.1797 82.4832C69.9889 82.3083 69.7927 82.144 69.586 81.9849C69.1818 81.5564 68.7824 81.1234 68.3878 80.6861C68.1985 80.5117 68.0003 80.3471 67.7941 80.193C67.6048 80.0169 67.4066 79.8506 67.2003 79.6947C67.0095 79.5198 66.8133 79.3554 66.6066 79.1964C66.4183 79.0207 66.2201 78.8561 66.0128 78.7033C65.8265 78.526 65.63 78.3596 65.4243 78.205C65.235 78.0306 65.0368 77.866 64.8306 77.712C64.6413 77.5358 64.4431 77.3695 64.2368 77.2136C64.0504 77.038 63.8539 76.8734 63.6484 76.7206C63.4591 76.5445 63.2609 76.3781 63.0546 76.2223C62.8682 76.0466 62.6717 75.882 62.4662 75.7293C62.2768 75.5548 62.0786 75.3903 61.8724 75.2362C61.6861 75.0588 61.4896 74.8925 61.2839 74.7379C61.0946 74.5635 60.8964 74.3989 60.6902 74.2449C60.5031 74.0679 60.3048 73.9032 60.0964 73.7518C59.9101 73.5744 59.7136 73.4081 59.508 73.2535C59.3198 73.0778 59.1215 72.9132 58.9142 72.7605C58.7278 72.5848 58.5313 72.4202 58.3257 72.2674C58.1389 72.0885 57.9406 71.922 57.732 71.7691C57.5456 71.5934 57.3491 71.4288 57.1435 71.2761C56.9553 71.1004 56.7571 70.9358 56.5498 70.783C56.3648 70.6041 56.1683 70.4376 55.9613 70.2847C55.7731 70.109 55.5749 69.9444 55.3676 69.7917C55.1825 69.6145 54.9859 69.4498 54.7791 69.2986C54.5923 69.1197 54.394 68.9532 54.1853 68.8003C53.999 68.6247 53.8025 68.46 53.5969 68.3073C53.4101 68.13 53.2117 67.9653 53.0031 67.8142C52.823 67.6395 52.6317 67.4766 52.4306 67.3265C52.2424 67.1508 52.0441 66.9862 51.8368 66.8335C51.6531 66.6548 51.4565 66.49 51.2484 66.3405C51.0616 66.1615 50.8632 65.9951 50.6546 65.8421C50.4689 65.6636 50.2705 65.4988 50.0608 65.3491C49.0656 64.3688 47.7251 63.8186 46.3281 63.817C44.9312 63.8154 43.5894 64.3625 42.592 65.3406C41.5945 66.3186 41.021 67.6493 40.9951 69.046C40.9691 70.4427 41.4928 71.7938 42.4533 72.8082C42.599 73.0212 42.7603 73.2232 42.9357 73.4125C43.0831 73.6244 43.2443 73.8262 43.4182 74.0169C43.5687 74.2261 43.7316 74.4261 43.9059 74.616C44.0516 74.829 44.2129 75.031 44.3883 75.2203C44.5344 75.4314 44.6957 75.6316 44.8708 75.8194C45.0198 76.03 45.1809 76.2317 45.3532 76.4237C45.5011 76.6349 45.6641 76.8351 45.8409 77.0228C45.9883 77.2346 46.1495 77.4365 46.3233 77.6272C46.4707 77.839 46.6319 78.0409 46.8058 78.2315C46.9563 78.4407 47.1192 78.6407 47.2935 78.8306C47.4409 79.0424 47.602 79.2443 47.7759 79.4349C47.9163 79.651 48.0722 79.8565 48.2425 80.0499C48.5637 80.4545 48.8871 80.8574 49.2126 81.2586C49.3614 81.4677 49.5225 81.6678 49.695 81.8577C49.8441 82.0683 50.0052 82.2701 50.1775 82.462C50.3312 82.6688 50.4903 82.8703 50.6599 83.0611C50.8107 83.2718 50.9736 83.4735 51.1476 83.6655C51.2964 83.8746 51.4575 84.0746 51.6301 84.2645C51.7788 84.4736 51.9399 84.6737 52.1125 84.8636C52.2586 85.0747 52.4198 85.2749 52.5949 85.4626C52.7423 85.6745 52.9035 85.8764 53.0774 86.067C53.2277 86.2749 53.3888 86.4748 53.5598 86.6661C53.7102 86.8739 53.8712 87.0739 54.0422 87.2651C54.1912 87.4757 54.3523 87.6775 54.5246 87.8695C54.6784 88.0762 54.8374 88.2777 55.0071 88.4685C55.1767 88.6594 55.3198 88.8768 55.4895 89.0676C55.6591 89.2585 55.8023 89.4758 55.9719 89.672C56.1416 89.8681 56.2847 90.0802 56.4544 90.271C56.624 90.4619 56.7671 90.6792 56.9368 90.8701C57.0889 91.0797 57.2517 91.2814 57.4245 91.4744C57.5733 91.6836 57.7344 91.8836 57.9069 92.0735C58.0573 92.2814 58.2183 92.4813 58.3894 92.6726C58.5398 92.8804 58.7008 93.0804 58.8718 93.2716C59.029 93.4683 59.1971 93.6559 59.3754 93.8336C59.5258 94.0414 59.6868 94.2414 59.8579 94.4326C60.0116 94.6394 60.1706 94.8408 60.3403 95.0317C60.5099 95.2225 60.6531 95.4399 60.8227 95.6361C60.9924 95.8322 61.1355 96.0443 61.3051 96.2351C61.4748 96.426 61.6179 96.6433 61.7876 96.8342C61.9572 97.025 62.1004 97.2424 62.27 97.4385C62.4396 97.6347 62.5828 97.8467 62.7524 98.0376C62.9221 98.2284 63.0705 98.4458 63.2402 98.6367C63.4098 98.8275 63.5529 99.0449 63.7226 99.241C63.8922 99.4372 64.0354 99.6439 64.205 99.8401C64.3554 100.048 64.5164 100.248 64.6874 100.439C64.8378 100.647 64.9989 100.847 65.1699 101.038C65.3236 101.25 65.4827 101.446 65.6523 101.643C65.8219 101.839 65.9651 102.051 66.1347 102.242C66.3044 102.432 66.4475 102.65 66.6172 102.841C66.7868 103.032 66.9299 103.249 67.0996 103.445C67.2692 103.641 67.4124 103.848 67.582 104.044C67.7517 104.24 67.9001 104.452 68.0644 104.643C68.2288 104.834 68.3825 105.051 68.5469 105.248C68.7112 105.444 68.865 105.65 69.0346 105.847C69.185 106.054 69.346 106.254 69.517 106.446C69.6655 106.652 69.8298 106.854 69.9995 107.05C70.1691 107.246 70.3122 107.453 70.4819 107.649C70.6515 107.845 70.7947 108.057 70.9643 108.248C71.134 108.439 71.2771 108.656 71.4468 108.847C71.6164 109.038 71.7595 109.255 71.9292 109.452C72.0988 109.648 72.242 109.854 72.4116 110.051C72.5812 110.247 72.7244 110.459 72.894 110.65C73.0637 110.841 73.2121 111.058 73.3765 111.254C73.5408 111.45 73.6946 111.657 73.8589 111.853C74.0232 112.049 74.177 112.261 74.3413 112.452C74.5057 112.643 74.6594 112.86 74.8237 113.056C74.9881 113.253 75.1418 113.459 75.3115 113.656C75.4619 113.863 75.6229 114.063 75.7939 114.255C75.9477 114.461 76.1067 114.663 76.2763 114.859C76.446 115.055 76.5891 115.262 76.7588 115.458L76.9178 115.665V115.702L77.2041 116.046C77.2242 116.074 77.2473 116.099 77.273 116.121C77.3578 116.221 77.4479 116.322 77.5381 116.418L77.6388 116.524C77.7183 116.608 77.8031 116.693 77.888 116.773C77.9313 116.82 77.9773 116.864 78.0258 116.905C78.1 116.98 78.1795 117.048 78.2591 117.117L78.4234 117.261L78.6514 117.451L78.8316 117.589L79.0702 117.769L79.2451 117.897L79.5102 118.072L79.6745 118.178C79.7753 118.241 79.876 118.305 79.982 118.363L80.1093 118.437L80.4751 118.634L80.5546 118.676C80.6977 118.75 80.8462 118.819 80.9946 118.883C82.0042 119.332 83.0771 119.624 84.1754 119.747L84.6261 119.789H84.7586H85.0926H85.5962H85.8878H86.1423H86.4179L86.7095 119.757L86.9322 119.726L87.2821 119.673H87.4358L87.844 119.583H87.9235L88.3901 119.461C89.7187 119.081 90.961 118.447 92.048 117.595L92.0852 117.568C92.2018 117.48 92.3184 117.384 92.435 117.282L92.5093 117.218L92.8008 116.953L92.9122 116.847L93.1613 116.598L93.2886 116.465L93.5059 116.227L93.5908 116.131C93.7869 115.94 93.9725 115.739 94.1474 115.538C94.3223 115.336 94.5291 115.145 94.6775 114.944C94.826 114.742 95.0592 114.551 95.2342 114.35C95.4091 114.149 95.6159 113.958 95.7908 113.756C95.9658 113.555 96.1725 113.364 96.321 113.163C96.4694 112.961 96.7027 112.77 96.8776 112.569C97.0526 112.367 97.2593 112.176 97.4078 111.975C97.5562 111.774 97.7895 111.583 97.9644 111.376C98.1394 111.169 98.3461 110.989 98.5211 110.782C98.696 110.575 98.9028 110.395 99.0512 110.188C99.1996 109.982 99.4329 109.801 99.6079 109.595C99.7828 109.388 99.9896 109.208 100.138 109.001C100.286 108.794 100.52 108.614 100.695 108.407C100.87 108.2 101.076 108.02 101.251 107.813C101.426 107.607 101.633 107.426 101.781 107.22C101.93 107.013 102.163 106.833 102.338 106.626C102.513 106.419 102.72 106.239 102.868 106.032C103.017 105.825 103.25 105.645 103.425 105.438C103.6 105.232 103.807 105.051 103.982 104.845C104.156 104.638 104.363 104.458 104.512 104.251C104.66 104.044 104.893 103.864 105.068 103.657C105.243 103.45 105.45 103.27 105.598 103.063C105.747 102.857 105.98 102.676 106.155 102.47C106.33 102.263 106.537 102.083 106.712 101.876C106.887 101.669 107.093 101.489 107.242 101.282C107.39 101.075 107.624 100.895 107.799 100.688C107.973 100.482 108.18 100.301 108.329 100.095C108.477 99.8878 108.71 99.7075 108.885 99.5008C109.06 99.294 109.267 99.1138 109.442 98.907C109.617 98.7003 109.824 98.52 109.972 98.3133C110.121 98.1065 110.354 97.9263 110.529 97.7195C110.704 97.5128 110.91 97.3325 111.059 97.1258C111.207 96.919 111.441 96.7387 111.616 96.532C111.791 96.3252 111.997 96.145 112.172 95.9382C112.347 95.7315 112.554 95.5512 112.702 95.3445C112.851 95.1377 113.084 94.9575 113.259 94.7507C113.434 94.544 113.641 94.3637 113.789 94.157C113.938 93.9502 114.171 93.77 114.346 93.5632C114.521 93.3564 114.727 93.1762 114.902 92.9694C115.077 92.7627 115.284 92.5824 115.433 92.3757C115.581 92.1689 115.814 91.9887 115.989 91.7819C116.164 91.5752 116.371 91.3949 116.519 91.1882C116.668 90.9814 116.896 90.8012 117.076 90.5944C117.256 90.3877 117.452 90.2074 117.633 90.0007C117.813 89.7939 118.014 89.6136 118.163 89.4069C118.311 89.2001 118.539 89.0199 118.719 88.8131C118.9 88.6064 119.096 88.4261 119.25 88.2194C119.403 88.0126 119.626 87.8324 119.806 87.6256C119.986 87.4189 120.183 87.2386 120.363 87.0319C120.543 86.8251 120.739 86.6449 120.893 86.4328C121.047 86.2207 121.269 86.0511 121.45 85.839C121.63 85.627 121.826 85.4573 121.98 85.2453C122.134 85.0332 122.356 84.8636 122.536 84.6515C122.717 84.4395 122.913 84.2698 123.093 84.0578C123.273 83.8457 123.47 83.6761 123.623 83.464C123.777 83.252 124 83.0823 124.18 82.8703C124.36 82.6582 124.556 82.4832 124.71 82.2765C124.864 82.0697 125.086 81.8895 125.267 81.6827C125.447 81.476 125.643 81.2957 125.823 81.089C126.004 80.8822 126.2 80.702 126.353 80.4952C126.507 80.2885 126.73 80.1082 126.91 79.9015C127.09 79.6947 127.287 79.5145 127.44 79.3077C127.594 79.101 127.817 78.9207 127.997 78.7139C128.177 78.5072 128.373 78.3269 128.554 78.1202C128.734 77.9134 128.93 77.7332 129.084 77.5264C129.237 77.3197 129.46 77.1394 129.64 76.9327C129.821 76.7259 130.017 76.5457 130.171 76.3389C130.324 76.1322 130.547 75.9519 130.701 75.7452L130.704 75.7636C131.259 75.1709 131.259 75.1709 131.815 74.5783L131.808 74.5683C132.369 73.9698 132.369 73.9698 132.93 73.3714L132.924 73.3531C133.479 72.7605 133.479 72.7605 134.035 72.1678L134.05 72.1852C134.606 71.5925 134.606 71.5925 135.161 70.9998C135.35 70.8095 135.536 70.6081 135.716 70.4013C136.089 70.0054 136.46 69.6078 136.829 69.2085C137.027 69.0223 137.213 68.824 137.386 68.6148L137.393 68.6067C137.948 68.014 137.948 68.014 138.504 67.4214L138.499 67.4272C138.695 67.2397 138.881 67.0415 139.056 66.8335C139.252 66.6442 139.438 66.4442 139.612 66.2344C139.813 66.0509 139.999 65.8524 140.169 65.6407C140.37 65.4559 140.557 65.2575 140.731 65.0469L140.727 65.0531C141.282 64.4604 141.282 64.4604 141.838 63.8678L141.844 63.8594C142.042 63.6713 142.228 63.4713 142.401 63.2603C142.598 63.0741 142.784 62.8758 142.958 62.6666C143.155 62.4803 143.341 62.282 143.514 62.0728C143.703 61.8858 143.88 61.6875 144.044 61.4791C144.243 61.2943 144.429 61.0959 144.601 60.8853C144.8 60.6992 144.988 60.5009 145.163 60.2915C145.361 60.1035 145.546 59.9034 145.72 59.6925C145.917 59.5062 146.103 59.3079 146.276 59.0987C146.474 58.9125 146.66 58.7142 146.833 58.505C147.021 58.3179 147.198 58.1196 147.363 57.9112C147.559 57.7237 147.745 57.5255 147.92 57.3174C148.12 57.1321 148.306 56.9319 148.476 56.7184C148.678 56.5362 148.864 56.3376 149.033 56.1246C149.234 55.9398 149.421 55.7414 149.595 55.5309C149.783 55.3438 149.96 55.1456 150.125 54.9371C150.323 54.7509 150.509 54.5526 150.682 54.3434C150.878 54.1558 151.064 53.9576 151.238 53.7496C151.436 53.5615 151.622 53.3615 151.795 53.1505C152.297 53.0163 152.775 52.8034 153.21 52.5197C153.401 52.3437 153.578 52.1541 153.741 51.9524C153.941 51.7689 154.127 51.5704 154.297 51.3587C154.498 51.1752 154.684 50.9767 154.854 50.7649C155.055 50.5783 155.242 50.3781 155.416 50.1658C155.615 49.9809 155.801 49.7825 155.972 49.5721C156.171 49.3871 156.357 49.1887 156.529 48.9783C156.719 48.7926 156.896 48.5942 157.059 48.3846C157.26 48.2011 157.446 48.0026 157.616 47.7908C157.833 47.6052 158.033 47.4012 158.215 47.1811C158.942 46.5146 159.471 45.6613 159.746 44.7144C160.021 43.7675 160.031 42.7634 159.774 41.8113C159.518 40.8592 159.005 39.9958 158.292 39.3152C157.578 38.6346 156.692 38.1628 155.729 37.9514V37.9355Z" fill="url(#paint0_linear_146_354)"/>
<path d="M75.2799 79.6798C75.4866 79.8389 75.6828 80.0032 75.8736 80.1729C76.0645 80.3425 76.2765 80.5016 76.4674 80.6712C76.6582 80.8408 76.8703 80.9946 77.0611 81.1642L77.6549 81.6626C77.8563 81.8216 78.0525 81.9912 78.2487 82.1609C78.4448 82.3305 78.6463 82.4843 78.8371 82.6539C79.028 82.8236 79.24 82.9826 79.4309 83.1523C79.6217 83.3219 79.8338 83.4809 80.0246 83.6453C80.2155 83.8096 80.4275 83.974 80.6184 84.1436C80.8092 84.3133 81.0213 84.4723 81.2068 84.642C81.3924 84.8116 81.6151 84.9706 81.8006 85.135C81.9861 85.2993 82.2035 85.4637 82.3944 85.6333C82.5852 85.803 82.7973 85.962 82.9881 86.1317C83.179 86.3013 83.391 86.4603 83.5819 86.6247C83.7727 86.789 83.9848 86.9534 84.1756 87.123C84.3665 87.2927 84.5785 87.4517 84.7694 87.6213C84.9602 87.791 85.1617 87.9394 85.3472 88.1038C85.5487 87.9235 85.7501 87.7592 85.9463 87.5736C86.1425 87.3881 86.3598 87.2131 86.5666 87.0435C86.7733 86.8739 86.9801 86.683 87.1868 86.5134C87.3936 86.3437 87.6003 86.1529 87.8071 85.9832C88.0139 85.8136 88.2206 85.6227 88.4274 85.4531C88.6341 85.2834 88.8409 85.0926 89.0476 84.9229C89.2544 84.7533 89.4611 84.5624 89.6679 84.3928C89.8747 84.2231 90.0814 84.0323 90.2882 83.8626C90.4949 83.693 90.7017 83.5022 90.9084 83.3325C91.1152 83.1629 91.3219 82.972 91.5287 82.8024C91.7354 82.6327 91.9422 82.4419 92.149 82.2722C92.3557 82.1026 92.5625 81.9117 92.7692 81.7421C92.976 81.5724 93.1827 81.3816 93.3895 81.2119C93.5962 81.0423 93.803 80.8514 94.0098 80.6818C94.2165 80.5122 94.4233 80.3213 94.63 80.1517C94.8368 79.982 95.0382 79.7912 95.2503 79.6215C95.4623 79.4519 95.6585 79.261 95.8705 79.0914L95.9024 79.0596H74.6543L74.702 79.102C74.9088 79.3405 75.1049 79.5208 75.2799 79.6798Z" fill="url(#paint1_linear_146_354)"/>
<path d="M108.907 68.1075C109.109 67.9272 109.315 67.7505 109.527 67.5773C109.729 67.3918 109.936 67.2168 110.148 67.0472C110.36 66.8775 110.556 66.692 110.768 66.517C110.98 66.3421 111.176 66.1618 111.388 65.9869C111.6 65.8119 111.796 65.6317 112.008 65.4568C112.22 65.2818 112.417 65.1016 112.629 64.9266C112.841 64.7517 113.037 64.5714 113.249 64.3965C113.461 64.2215 113.657 64.0413 113.869 63.8663C114.081 63.6914 114.272 63.5111 114.489 63.3362C114.707 63.1612 114.892 62.9757 115.11 62.806C115.327 62.6364 115.513 62.4509 115.73 62.2759C115.947 62.101 116.133 61.9207 116.35 61.7458C116.568 61.5708 116.753 61.3853 116.971 61.2156C117.188 61.046 117.373 60.8604 117.591 60.6855C117.808 60.5105 117.994 60.3303 118.211 60.1553C118.428 59.9804 118.619 59.8001 118.831 59.6252C119.043 59.4503 119.24 59.2647 119.452 59.0951C119.664 58.9254 119.86 58.7399 120.072 58.5649C120.284 58.39 120.48 58.2044 120.697 58.0348C120.915 57.8651 121.1 57.6796 121.318 57.5046C121.535 57.3297 121.721 57.1441 121.938 56.9745C122.155 56.8048 122.346 56.6193 122.558 56.4444C122.77 56.2694 122.966 56.0839 123.179 55.9142C123.391 55.7446 123.587 55.559 123.804 55.3841C124.021 55.2091 124.154 55.0766 124.334 54.9281V54.0746C124.334 50.5015 124.398 46.9177 124.334 43.3446V43.1908C124.334 38.8543 120.522 34.7086 116.043 34.8994C111.563 35.0903 107.746 38.5415 107.746 43.1908V69.0776L108.276 68.6217C108.485 68.4662 108.695 68.2948 108.907 68.1075Z" fill="url(#paint2_linear_146_354)"/>
<path d="M123.581 91.7137C123.401 91.9205 123.216 92.1166 123.025 92.3075C122.834 92.4983 122.659 92.7104 122.468 92.9013C122.277 93.0921 122.102 93.3042 121.938 93.495C121.774 93.6859 121.572 93.8979 121.381 94.0888C121.19 94.2796 121.016 94.4917 120.851 94.6825C120.687 94.8734 120.485 95.0854 120.295 95.2763C120.104 95.4671 119.929 95.6792 119.738 95.87C119.547 96.0609 119.372 96.273 119.208 96.4638C119.043 96.6547 118.842 96.8667 118.651 97.0576C118.46 97.2484 118.285 97.4605 118.121 97.6513C117.957 97.8422 117.755 98.0542 117.564 98.2451C117.373 98.4359 117.198 98.648 117.008 98.8388C116.817 99.0297 116.642 99.2417 116.477 99.4326C116.313 99.6234 116.112 99.8355 115.921 100.026C115.73 100.217 115.56 100.429 115.391 100.62C115.221 100.811 115.03 101.023 114.834 101.214C114.638 101.405 114.474 101.617 114.277 101.808C114.081 101.998 113.917 102.211 113.747 102.401C113.578 102.592 113.387 102.799 113.191 102.995C112.994 103.191 112.83 103.393 112.66 103.589C112.491 103.785 112.3 103.987 112.104 104.183C111.908 104.379 111.743 104.58 111.547 104.776C111.351 104.973 111.187 105.174 111.017 105.37C110.847 105.566 110.657 105.768 110.46 105.964C110.264 106.16 110.1 106.362 109.93 106.558C109.761 106.754 109.57 106.955 109.374 107.151C109.177 107.348 109.013 107.549 108.843 107.745C108.674 107.941 108.478 108.143 108.282 108.339L108.038 108.609V120.76C108.038 124.333 107.979 127.917 108.038 131.49C108.04 131.541 108.04 131.593 108.038 131.644C108.038 135.981 111.855 140.126 116.334 139.935C120.814 139.745 124.626 136.293 124.626 131.644V90.9238C124.557 90.998 124.493 91.0723 124.424 91.1412C123.958 91.3479 123.772 91.5441 123.581 91.7137Z" fill="url(#paint3_linear_146_354)"/>
<path d="M53.9947 61.8465C54.1962 62.0055 54.3976 62.1699 54.5885 62.3395C54.7793 62.5092 54.9861 62.6629 55.1769 62.8326C55.3678 63.0022 55.5799 63.1559 55.7707 63.3309C55.9616 63.5058 56.1683 63.6543 56.3592 63.8239C56.55 63.9936 56.7568 64.1473 56.9529 64.317C57.1491 64.4866 57.3505 64.6403 57.5414 64.8153C57.7322 64.9902 57.939 65.1387 58.1351 65.3083C58.3313 65.478 58.5327 65.6317 58.7236 65.8013C58.9144 65.971 59.1212 66.1247 59.312 66.2997C59.5029 66.4746 59.715 66.6231 59.9058 66.7927C60.0967 66.9624 60.3034 67.1161 60.4996 67.2857C60.6957 67.4554 60.8972 67.6091 61.088 67.7841C61.2789 67.959 61.4856 68.1075 61.6818 68.2771C61.8779 68.4468 62.0794 68.6005 62.2702 68.7701C62.4611 68.9398 62.6678 69.0935 62.8587 69.2685C62.9488 69.3374 63.0336 69.4116 63.1185 69.4858V54.0746C63.1185 50.5015 63.1821 46.9177 63.1185 43.3446V43.1908C63.1185 38.8543 59.3067 34.7086 54.8271 34.8994C50.3474 35.0903 46.5356 38.5521 46.5356 43.2014V58.6444C49.0865 58.6763 51.5377 59.6398 53.4275 61.3535C53.6077 61.4966 53.8039 61.6769 53.9947 61.8465Z" fill="url(#paint4_linear_146_354)"/>
<path d="M62.5565 106.119C62.3921 105.917 62.2278 105.716 62.074 105.514C61.9203 105.313 61.7454 105.117 61.5916 104.915C61.4379 104.714 61.2629 104.518 61.1092 104.316C60.9554 104.115 60.7805 103.919 60.6268 103.712C60.473 103.505 60.2981 103.314 60.1443 103.113C59.9906 102.911 59.8156 102.715 59.6619 102.514C59.5082 102.312 59.3332 102.116 59.1795 101.915C59.0257 101.713 58.8508 101.517 58.697 101.31C58.5433 101.104 58.3684 100.913 58.2146 100.711C58.0609 100.51 57.8859 100.314 57.7322 100.112C57.5784 99.9107 57.4035 99.7146 57.2498 99.5131C57.096 99.3117 56.9211 99.1155 56.7673 98.9088C56.6136 98.702 56.4386 98.5165 56.2849 98.3097C56.1312 98.1029 55.9562 97.9121 55.7972 97.7106C55.6381 97.5092 55.4738 97.313 55.3147 97.1116C55.1557 96.9101 54.9861 96.714 54.8323 96.5072C54.6786 96.3005 54.5036 96.1149 54.3499 95.9082C54.1961 95.7014 54.0212 95.5106 53.8675 95.3091C53.7137 95.1076 53.5388 94.9115 53.385 94.71C53.2313 94.5086 53.0563 94.3124 52.9026 94.1057C52.7489 93.8989 52.5739 93.7134 52.4202 93.5066C52.2664 93.2999 52.0915 93.1143 51.9377 92.9076C51.784 92.7008 51.609 92.51 51.4553 92.3032C51.3016 92.0964 51.1266 91.9109 50.9729 91.7041C50.8191 91.4974 50.6442 91.3118 50.4905 91.1051C50.3367 90.8983 50.1618 90.7128 50.008 90.506C49.8543 90.2993 49.6793 90.1084 49.5256 89.9017C49.3719 89.6949 49.1969 89.5094 49.0432 89.3026C48.8894 89.0958 48.7145 88.9103 48.5607 88.7035C48.407 88.4968 48.2321 88.3112 48.073 88.1045C47.914 87.8977 47.7496 87.7069 47.5906 87.5001C47.4315 87.2934 47.2672 87.1078 47.1082 86.9011C46.9491 86.6943 46.7848 86.5088 46.6257 86.302L46.5356 86.1907V86.8799C46.525 87.0653 46.525 87.2511 46.5356 87.4365V120.782C46.5356 124.356 46.472 127.939 46.5356 131.512V131.666C46.5356 136.003 50.3473 140.148 54.827 139.958C59.3067 139.767 63.1184 136.316 63.1184 131.666V106.818L63.0389 106.718L62.5565 106.119Z" fill="url(#paint5_linear_146_354)"/>
</g>
<defs>
<linearGradient id="paint0_linear_146_354" x1="100.456" y1="41.3284" x2="100.679" y2="129.867" gradientUnits="userSpaceOnUse">
<stop stop-color="white"/>
<stop offset="0.44" stop-color="#F8FDFF"/>
<stop offset="1" stop-color="#E8F8FF"/>
</linearGradient>
<linearGradient id="paint1_linear_146_354" x1="85.1882" y1="41.3718" x2="85.4162" y2="129.911" gradientUnits="userSpaceOnUse">
<stop stop-color="white"/>
<stop offset="0.44" stop-color="#F8FDFF"/>
<stop offset="1" stop-color="#E8F8FF"/>
</linearGradient>
<linearGradient id="paint2_linear_146_354" x1="116.016" y1="41.2929" x2="116.244" y2="129.832" gradientUnits="userSpaceOnUse">
<stop stop-color="white"/>
<stop offset="0.44" stop-color="#F8FDFF"/>
<stop offset="1" stop-color="#E8F8FF"/>
</linearGradient>
<linearGradient id="paint3_linear_146_354" x1="115.857" y1="41.292" x2="116.085" y2="129.831" gradientUnits="userSpaceOnUse">
<stop stop-color="white"/>
<stop offset="0.44" stop-color="#F8FDFF"/>
<stop offset="1" stop-color="#E8F8FF"/>
</linearGradient>
<linearGradient id="paint4_linear_146_354" x1="54.8112" y1="41.4467" x2="55.0391" y2="129.986" gradientUnits="userSpaceOnUse">
<stop stop-color="white"/>
<stop offset="0.44" stop-color="#F8FDFF"/>
<stop offset="1" stop-color="#E8F8FF"/>
</linearGradient>
<linearGradient id="paint5_linear_146_354" x1="54.6203" y1="41.4467" x2="54.8429" y2="129.986" gradientUnits="userSpaceOnUse">
<stop stop-color="white"/>
<stop offset="0.44" stop-color="#F8FDFF"/>
<stop offset="1" stop-color="#E8F8FF"/>
</linearGradient>
<clipPath id="clip0_146_354">
<rect width="174.867" height="174.867" fill="white"/>
</clipPath>
</defs>
</svg>
